<svg id="eumxbwGnBKO1" xmlns="http://www.w3.org/2000/svg" xmlns:xlink="http://www.w3.org/1999/xlink" viewBox="0 0 294 524" shape-rendering="geometricPrecision" text-rendering="geometricPrecision"><defs><filter id="eumxbwGnBKO6-filter" x="-150%" width="400%" y="-150%" height="400%"><feGaussianBlur id="eumxbwGnBKO6-filter-drop-shadow-0-blur" in="SourceAlpha" stdDeviation="0,88"/><feOffset id="eumxbwGnBKO6-filter-drop-shadow-0-offset" dx="0" dy="-3" result="tmp"/><feFlood id="eumxbwGnBKO6-filter-drop-shadow-0-flood" flood-color="rgba(0,0,0,0.25)"/><feComposite id="eumxbwGnBKO6-filter-drop-shadow-0-composite" operator="in" in2="tmp"/><feMerge id="eumxbwGnBKO6-filter-drop-shadow-0-merge"><feMergeNode id="eumxbwGnBKO6-filter-drop-shadow-0-merge-node-1"/><feMergeNode id="eumxbwGnBKO6-filter-drop-shadow-0-merge-node-2" in="SourceGraphic"/></feMerge></filter></defs><g transform="translate(.000001 0)" mask="url(#eumxbwGnBKO85)"><g><rect width="294" height="524" rx="20" ry="20" fill="#fff"/><g id="eumxbwGnBKO5" transform="translate(-.500044 0)"><path d="M0.094902,483.964C31.9629,432.012,262.037,432.012,293.905,483.964c9.214,15.02,0,40.036,0,40.036h-293.810098c0,0-9.213532-25.016,0-40.036Z" filter="url(#eumxbwGnBKO6-filter)" fill="#fff"/><rect width="41" height="2" rx="1" ry="1" transform="translate(126 457)" fill="#333"/></g><rect id="eumxbwGnBKO8" width="247.862372" height="1.747674" rx="0" ry="0" transform="matrix(1.186142 0 0-.761468 0.00003 574.032202)" fill="#fff" stroke-width="0"/><g id="eumxbwGnBKO9" transform="translate(0 410)"><g clip-path="url(#eumxbwGnBKO40)"><g><path d="M106,156.5h-13.5v13.5h13.5v-13.5Z" fill="#333"/><path d="M173.5,143v6.75h-6.75v6.75h6.75v27h6.75v6.75h-6.75v6.75h6.75h6.75v-13.5h20.25v6.75h6.75v-6.75-40.5h-40.5Zm33.75,33.75h-27v-27h27v27Z" fill="#333"/><path d="M200.5,156.5h-13.5v13.5h13.5v-13.5Z" fill="#333"/><path d="M106,251h-13.5v13.5h13.5v-13.5Z" fill="#333"/><path d="M180.25,237.5h-6.75v6.75h6.75v-6.75Z" fill="#333"/><path d="M146.5,271.25h-6.75v6.75h6.75v-6.75Z" fill="#333"/><path d="M153.25,244.25h-6.75v6.75h6.75v-6.75Z" fill="#333"/><path d="M153.25,257.75h-6.75v6.75h6.75v-6.75Z" fill="#333"/><path d="M214,224h-6.75v6.75h6.75v-6.75Z" fill="#333"/><path d="M85.75,224h-6.75v6.75h6.75v-6.75Z" fill="#333"/><path d="M85.75,190.25h-6.75v6.75h6.75v-6.75Z" fill="#333"/><path d="M153.25,149.75v6.75h-13.5v6.75h20.25v-6.75-6.75h-6.75Z" fill="#333"/><path d="M207.25,197v6.75h-13.5v6.75h-20.25v-6.75h-6.75v6.75h-13.5v6.75h20.25v6.75h-13.5-6.75v-6.75h-6.75v6.75h-6.75v-6.75h-6.75v6.75h-6.75v6.75h13.5v6.75h6.75v-6.75h13.5v6.75h-6.75v6.75h6.75v13.5h6.75v6.75h6.75v-6.75h20.25v-13.5h6.75v-6.75h-6.75v-13.5h-13.5v-6.75h13.5v6.75h6.75v-6.75h6.75v-6.75h6.75v-6.75-6.75h-6.75ZM187,230.75v20.25h-20.25v-20.25h20.25Z" fill="#333"/><path d="M166.75,183.5h-6.75v6.75h-6.75v6.75v6.75h6.75v-6.75h6.75v-6.75h6.75v-6.75h-6.75Z" fill="#333"/><path d="M166.75,271.25h-13.5v6.75h13.5v-6.75Z" fill="#333"/><path d="M139.75,149.75h-6.75v6.75h6.75v-6.75Z" fill="#333"/><path d="M193.75,197h-6.75v6.75h6.75v-6.75Z" fill="#333"/><path d="M200.5,190.25h-6.75v6.75h6.75v-6.75Z" fill="#333"/><path d="M112.75,224h-6.75v6.75h6.75v-6.75Z" fill="#333"/><path d="M119.5,271.25v-27h6.75v-6.75-6.75h-6.75v6.75h-20.25v-6.75h-6.75-6.75v6.75h-6.75v40.5h40.5h13.5v-6.75h-13.5Zm-6.75,0h-27v-27h27v27Z" fill="#333"/><path d="M126.25,183.5h-6.75v6.75h6.75v-6.75Z" fill="#333"/><path d="M126.25,143h-6.75-40.5v40.5h6.75v6.75h6.75v-6.75h6.75v6.75h6.75v-6.75h13.5v-13.5h6.75v-6.75h-6.75v-13.5h6.75h6.75v-6.75h-6.75Zm-13.5,33.75h-27v-27h27v27Z" fill="#333"/><path d="M166.75,163.25h-6.75v6.75h6.75v-6.75Z" fill="#333"/><path d="M153.25,143h-6.75v6.75h6.75v-6.75Z" fill="#333"/><path d="M160,183.5v-6.75h-6.75v-6.75h-6.75v6.75h-13.5v-6.75h-6.75v6.75v6.75h6.75v13.5h-20.25v-6.75h-6.75v6.75h-20.25v6.75h13.5v6.75h-20.25v6.75h20.25v6.75h6.75v-6.75h6.75v6.75h6.75v-6.75h13.5v-6.75h-6.75v-6.75h6.75h6.75v6.75h6.75h6.75v-6.75h-6.75v-6.75h-6.75v-13.5h20.25v0Zm-40.5,27h-13.5v-6.75h13.5v6.75Z" fill="#333"/><path d="M139.75,251v-6.75-6.75h-6.75v6.75h-6.75v6.75h6.75v6.75h-6.75v6.75h13.5v-6.75h6.75v-6.75h-6.75Z" fill="#333"/><path d="M200.5,264.5v-6.75h-6.75v6.75h-20.25v6.75h13.5v6.75h6.75v-6.75h13.5v6.75h6.75v-6.75-6.75h-13.5Z" fill="#333"/><path d="M207.25,237.5v6.75h-6.75v6.75h13.5v-6.75-6.75h-6.75Z" fill="#333"/></g><clipPath id="eumxbwGnBKO40"><rect width="135" height="135" rx="0" ry="0" transform="translate(79 143)" fill="#fff"/></clipPath></g><g><rect width="197" height="47" rx="22" ry="22" transform="translate(48 333)" fill="#333"/><path d="M115.056,362.112c-.821,0-1.557-.133-2.208-.4s-1.173-.661-1.568-1.184c-.384-.523-.587-1.152-.608-1.888h2.912c.043.416.187.736.432.96.245.213.565.32.96.32.405,0,.725-.091.96-.272.235-.192.352-.453.352-.784c0-.277-.096-.507-.288-.688-.181-.181-.411-.331-.688-.448-.267-.117-.651-.251-1.152-.4-.725-.224-1.317-.448-1.776-.672s-.853-.555-1.184-.992-.496-1.008-.496-1.712c0-1.045.379-1.861,1.136-2.448.757-.597,1.744-.896,2.96-.896c1.237,0,2.235.299,2.992.896.757.587,1.163,1.408,1.216,2.464h-2.96c-.021-.363-.155-.645-.4-.848-.245-.213-.56-.32-.944-.32-.331,0-.597.091-.8.272-.203.171-.304.421-.304.752c0,.363.171.645.512.848s.875.421,1.6.656c.725.245,1.312.48,1.76.704.459.224.853.549,1.184.976s.496.976.496,1.648c0,.64-.165,1.221-.496,1.744-.32.523-.789.939-1.408,1.248s-1.349.464-2.192.464Zm5.316-5.744c0-1.109.24-2.096.72-2.96.48-.875,1.146-1.552,2-2.032.864-.491,1.84-.736,2.928-.736c1.333,0,2.474.352,3.424,1.056.949.704,1.584,1.664,1.904,2.88h-3.008c-.224-.469-.544-.827-.96-1.072-.406-.245-.87-.368-1.392-.368-.843,0-1.526.293-2.048.88-.523.587-.784,1.371-.784,2.352s.261,1.765.784,2.352c.522.587,1.205.88,2.048.88.522,0,.986-.123,1.392-.368.416-.245.736-.603.96-1.072h3.008c-.32,1.216-.955,2.176-1.904,2.88-.95.693-2.091,1.04-3.424,1.04-1.088,0-2.064-.24-2.928-.72-.854-.491-1.52-1.168-2-2.032s-.72-1.851-.72-2.96Zm19.643,3.648h-4.192L135.151,362h-2.864l4.064-11.232h3.168L143.583,362h-2.896l-.672-1.984Zm-.704-2.112l-1.392-4.112-1.376,4.112h2.768ZM154.868,362h-2.736l-4.576-6.928v6.928h-2.736v-11.232h2.736l4.576,6.96v-6.96h2.736v11.232Zm18.094-11.232v11.232h-2.736v-6.736L167.714,362h-2.208l-2.528-6.752v6.752h-2.736v-11.232h3.232l3.152,7.776l3.12-7.776h3.216Zm4.704,2.192v2.272h3.664v2.112h-3.664v2.464h4.144v2.192h-6.88v-11.232h6.88v2.192h-4.144Z" fill="#fff"/></g></g><g id="eumxbwGnBKO48" transform="translate(0 0.000001)"><g><rect width="190" height="39" rx="19.5" ry="19.5" transform="translate(52 338)" fill="#333"/><path d="M119.28,356.2c-.127-.233-.31-.41-.55-.53-.233-.127-.51-.19-.83-.19-.553,0-.997.183-1.33.55-.333.36-.5.843-.5,1.45c0,.647.173,1.153.52,1.52.353.36.837.54,1.45.54.42,0,.773-.107,1.06-.32.293-.213.507-.52.64-.92h-2.17v-1.26h3.72v1.59c-.127.427-.343.823-.65,1.19-.3.367-.683.663-1.15.89s-.993.34-1.58.34c-.693,0-1.313-.15-1.86-.45-.54-.307-.963-.73-1.27-1.27-.3-.54-.45-1.157-.45-1.85s.15-1.31.45-1.85c.307-.547.73-.97,1.27-1.27.54-.307,1.157-.46,1.85-.46.84,0,1.547.203,2.12.61.58.407.963.97,1.15,1.69h-1.89Zm4.667-.85v1.42h2.29v1.32h-2.29v1.54h2.59v1.37h-4.3v-7.02h4.3v1.37h-2.59Zm8.75-1.37v1.37h-1.86v5.65h-1.71v-5.65h-1.86v-1.37h5.43Zm5.518,7.09c-.514,0-.974-.083-1.38-.25-.407-.167-.734-.413-.98-.74-.24-.327-.367-.72-.38-1.18h1.82c.026.26.116.46.27.6.153.133.353.2.6.2.253,0,.453-.057.6-.17.146-.12.22-.283.22-.49c0-.173-.06-.317-.18-.43-.114-.113-.257-.207-.43-.28-.167-.073-.407-.157-.72-.25-.454-.14-.824-.28-1.11-.42-.287-.14-.534-.347-.74-.62-.207-.273-.31-.63-.31-1.07c0-.653.236-1.163.71-1.53.473-.373,1.09-.56,1.85-.56.773,0,1.396.187,1.87.56.473.367.726.88.76,1.54h-1.85c-.014-.227-.097-.403-.25-.53-.154-.133-.35-.2-.59-.2-.207,0-.374.057-.5.17-.127.107-.19.263-.19.47c0,.227.106.403.32.53.213.127.546.263,1,.41.453.153.82.3,1.1.44.286.14.533.343.74.61.206.267.31.61.31,1.03c0,.4-.104.763-.31,1.09-.2.327-.494.587-.88.78-.387.193-.844.29-1.37.29Zm8.662-7.09v1.37h-1.86v5.65h-1.71v-5.65h-1.86v-1.37h5.43Zm5.228,5.78h-2.62l-.42,1.24h-1.79l2.54-7.02h1.98l2.54,7.02h-1.81l-.42-1.24Zm-.44-1.32l-.87-2.57-.86,2.57h1.73Zm7.023,2.56l-1.46-2.65h-.41v2.65h-1.71v-7.02h2.87c.554,0,1.024.097,1.41.29.394.193.687.46.88.8.194.333.29.707.29,1.12c0,.467-.133.883-.4,1.25-.26.367-.646.627-1.16.78l1.62,2.78h-1.93Zm-1.87-3.86h1.06c.314,0,.547-.077.7-.23.16-.153.24-.37.24-.65c0-.267-.08-.477-.24-.63-.153-.153-.386-.23-.7-.23h-1.06v1.74Zm9.864-3.16v1.37h-1.86v5.65h-1.71v-5.65h-1.86v-1.37h5.43Zm2.568,1.37v1.42h2.29v1.32h-2.29v1.54h2.59v1.37h-4.3v-7.02h4.3v1.37h-2.59Zm6.33-1.37c.74,0,1.387.147,1.94.44s.98.707,1.28,1.24c.307.527.46,1.137.46,1.83c0,.687-.153,1.297-.46,1.83-.3.533-.73.947-1.29,1.24-.553.293-1.197.44-1.93.44h-2.63v-7.02h2.63Zm-.11,5.54c.647,0,1.15-.177,1.51-.53s.54-.853.54-1.5-.18-1.15-.54-1.51-.863-.54-1.51-.54h-.81v4.08h.81Z" fill="#fff"/></g><g clip-path="url(#eumxbwGnBKO59)"><g><path d="M145.521,199.623c-.041,7.229,1.392,14.553,6.256,21.029.858,1.14,1.793,2.221,2.799,3.236.073.057.16.094.252.108s.187.004.274-.029c.18-.065.242-.207.131-.317-.992-1.001-1.913-2.066-2.758-3.189-7.315-9.728-6.801-21.491-5.191-31.945.804-5.227,1.88-10.125,2.375-14.287.242-2.081.349-3.977.197-5.64-.151-1.664-.555-3.097-1.34-4.252-.081-.119-.304-.174-.499-.119s-.289.182-.209.301c.736,1.081,1.137,2.468,1.286,4.101.26,2.859-.243,6.469-.952,10.537-1.063,6.098-2.58,13.237-2.621,20.466Z" fill="#ada6a6"/><g><path d="M156.43,138.492c3.418,10.213-1.03,20.908-9.934,23.887-8.903,2.979-17.579-3.666-20.996-13.879s-.282-20.127,8.622-23.106c8.903-2.979,18.891,2.885,22.308,13.098Z" fill="#ebc6c2"/></g><path d="M145.223,161.043c-.284,1.357-1.111,3.606-.303,3.718.807.113.817-1.068,1.75-1.085.932-.017.51.909,1.498.894.989-.014.698-1.616,1.892-1.331c1.195.284-.171-1.554-1.759-2.735l-3.078.539Z" fill="#eb919c"/><path d="M126.684,134.551c-1.076,3.064.97,6.557,3.032,7.263c2.061.705,3.379-1.644,4.453-4.71c1.073-3.066-.38-7.365-2.446-8.071-2.067-.707-3.964,2.453-5.039,5.518Z" fill="#ffd6d2"/></g><clipPath id="eumxbwGnBKO59"><rect width="34" height="101" rx="0" ry="0" transform="translate(124 123)" fill="#fff"/></clipPath></g><path d="M59.9004,278h-1.092l-4.392-6.66v6.66h-1.092v-8.376h1.092l4.392,6.648v-6.648h1.092v8.376Zm4.7295.108c-.616,0-1.176-.14-1.68-.42-.496-.28-.888-.676-1.176-1.188-.28-.52-.42-1.12-.42-1.8c0-.672.144-1.264.432-1.776.296-.52.696-.916,1.2-1.188.504-.28,1.068-.42,1.692-.42s1.188.14,1.692.42c.504.272.9.664,1.188,1.176.296.512.444,1.108.444,1.788s-.152,1.28-.456,1.8c-.296.512-.7.908-1.212,1.188s-1.08.42-1.704.42Zm0-.96c.392,0,.76-.092,1.104-.276s.62-.46.828-.828c.216-.368.324-.816.324-1.344s-.104-.976-.312-1.344-.48-.64-.816-.816c-.336-.184-.7-.276-1.092-.276-.4,0-.768.092-1.104.276-.328.176-.592.448-.792.816s-.3.816-.3,1.344c0,.536.096.988.288,1.356.2.368.464.644.792.828.328.176.688.264,1.08.264Zm11.211-5.844c.8,0,1.448.244,1.944.732.496.48.744,1.176.744,2.088v3.876h-1.08v-3.72c0-.656-.164-1.156-.492-1.5-.328-.352-.776-.528-1.344-.528-.576,0-1.036.18-1.38.54-.336.36-.504.884-.504,1.572v3.636h-1.092v-6.576h1.092v.936c.216-.336.508-.596.876-.78.376-.184.788-.276,1.236-.276Zm10.4718,3.156c0,.208-.012.428-.036.66h-5.256c.04.648.26,1.156.66,1.524.408.36.9.54,1.476.54.472,0,.864-.108,1.176-.324.32-.224.544-.52.672-.888h1.176c-.176.632-.528,1.148-1.056,1.548-.528.392-1.184.588-1.968.588-.624,0-1.184-.14-1.68-.42-.488-.28-.872-.676-1.152-1.188-.28-.52-.42-1.12-.42-1.8s.136-1.276.408-1.788.652-.904,1.14-1.176c.496-.28,1.064-.42,1.704-.42.624,0,1.176.136,1.656.408s.848.648,1.104,1.128c.264.472.396,1.008.396,1.608Zm-1.128-.228c0-.416-.092-.772-.276-1.068-.184-.304-.436-.532-.756-.684-.312-.16-.66-.24-1.044-.24-.552,0-1.024.176-1.416.528-.384.352-.604.84-.66,1.464h4.152Zm8.5694.228c0,.208-.012.428-.036.66h-5.256c.04.648.26,1.156.66,1.524.408.36.9.54,1.476.54.472,0,.864-.108,1.176-.324.32-.224.544-.52.672-.888h1.176c-.176.632-.528,1.148-1.056,1.548-.528.392-1.184.588-1.968.588-.624,0-1.184-.14-1.68-.42-.488-.28-.872-.676-1.152-1.188-.28-.52-.42-1.12-.42-1.8s.136-1.276.408-1.788.652-.904,1.14-1.176c.496-.28,1.064-.42,1.704-.42.624,0,1.176.136,1.656.408s.848.648,1.104,1.128c.264.472.396,1.008.396,1.608Zm-1.128-.228c0-.416-.092-.772-.276-1.068-.184-.304-.436-.532-.756-.684-.312-.16-.66-.24-1.044-.24-.552,0-1.024.176-1.416.528-.384.352-.604.84-.66,1.464h4.152Zm2.1614.456c0-.672.136-1.26.408-1.764.272-.512.644-.908,1.116-1.188.48-.28,1.016-.42,1.608-.42.512,0,.988.12,1.428.36.44.232.7755.54,1.0075.924v-3.48h1.104v8.88h-1.104v-1.236c-.216.392-.5355.716-.9595.972-.424.248-.92.372-1.488.372-.584,0-1.116-.144-1.596-.432-.472-.288-.844-.692-1.116-1.212s-.408-1.112-.408-1.776Zm5.5675.012c0-.496-.1-.928-.3-1.296-.1995-.368-.4715-.648-.8155-.84-.336-.2-.708-.3-1.116-.3s-.78.096-1.116.288-.604.472-.804.84-.3.8-.3,1.296c0,.504.1.944.3,1.32.2.368.468.652.804.852.336.192.708.288,1.116.288s.78-.096,1.116-.288c.344-.2.616-.484.8155-.852.2-.376.3-.812.3-1.308Zm7.481-2.376v3.876c0,.32.068.548.204.684.136.128.372.192.708.192h.804v.924h-.984c-.608,0-1.064-.14-1.368-.42s-.456-.74-.456-1.38v-3.876h-.852v-.9h.852v-1.656h1.092v1.656h1.716v.9h-1.716Zm5.907,5.784c-.616,0-1.176-.14-1.68-.42-.496-.28-.888-.676-1.176-1.188-.28-.52-.42-1.12-.42-1.8c0-.672.144-1.264.432-1.776.296-.52.696-.916,1.2-1.188.504-.28,1.068-.42,1.692-.42s1.188.14,1.692.42c.504.272.9.664,1.188,1.176.296.512.444,1.108.444,1.788s-.152,1.28-.456,1.8c-.296.512-.7.908-1.212,1.188s-1.08.42-1.704.42Zm0-.96c.392,0,.76-.092,1.104-.276s.62-.46.828-.828c.216-.368.324-.816.324-1.344s-.104-.976-.312-1.344-.48-.64-.816-.816c-.336-.184-.7-.276-1.092-.276-.4,0-.768.092-1.104.276-.328.176-.592.448-.792.816s-.3.816-.3,1.344c0,.536.096.988.288,1.356.2.368.464.644.792.828.328.176.688.264,1.08.264Zm9.099-4.512c.216-.376.536-.688.96-.936.432-.256.932-.384,1.5-.384.584,0,1.112.14,1.584.42.48.28.856.676,1.128,1.188.272.504.408,1.092.408,1.764c0,.664-.136,1.256-.408,1.776s-.648.924-1.128,1.212c-.472.288-1,.432-1.584.432-.56,0-1.056-.124-1.488-.372-.424-.256-.748-.572-.972-.948v4.332h-1.092v-9.696h1.092v1.212Zm4.464,2.052c0-.496-.1-.928-.3-1.296s-.472-.648-.816-.84c-.336-.192-.708-.288-1.116-.288-.4,0-.772.1-1.116.3-.336.192-.608.476-.816.852-.2.368-.3.796-.3,1.284c0,.496.1.932.3,1.308.208.368.48.652.816.852.344.192.716.288,1.116.288.408,0,.78-.096,1.116-.288.344-.2.616-.484.816-.852.2-.376.3-.816.3-1.32Zm2.146,0c0-.672.136-1.26.408-1.764.272-.512.644-.908,1.116-1.188.48-.28,1.012-.42,1.596-.42.576,0,1.076.124,1.5.372s.74.56.948.936v-1.2h1.104v6.576h-1.104v-1.224c-.216.384-.54.704-.972.96-.424.248-.92.372-1.488.372-.584,0-1.112-.144-1.584-.432s-.844-.692-1.116-1.212-.408-1.112-.408-1.776Zm5.568.012c0-.496-.1-.928-.3-1.296s-.472-.648-.816-.84c-.336-.2-.708-.3-1.116-.3s-.78.096-1.116.288-.604.472-.804.84-.3.8-.3,1.296c0,.504.1.944.3,1.32.2.368.468.652.804.852.336.192.708.288,1.116.288s.78-.096,1.116-.288c.344-.2.616-.484.816-.852.2-.376.3-.812.3-1.308Zm8.613-3.276l-3.96,9.672h-1.128l1.296-3.168-2.652-6.504h1.212l2.064,5.328l2.04-5.328h1.128Zm6.973.9h-1.38v5.676h-1.092v-5.676h-.852v-.9h.852v-.468c0-.736.188-1.272.564-1.608.384-.344.996-.516,1.836-.516v.912c-.48,0-.82.096-1.02.288-.192.184-.288.492-.288.924v.468h1.38v.9Zm4.141,5.784c-.616,0-1.176-.14-1.68-.42-.496-.28-.888-.676-1.176-1.188-.28-.52-.42-1.12-.42-1.8c0-.672.144-1.264.432-1.776.296-.52.696-.916,1.2-1.188.504-.28,1.068-.42,1.692-.42s1.188.14,1.692.42c.504.272.9.664,1.188,1.176.296.512.444,1.108.444,1.788s-.152,1.28-.456,1.8c-.296.512-.7.908-1.212,1.188s-1.08.42-1.704.42Zm0-.96c.392,0,.76-.092,1.104-.276s.62-.46.828-.828c.216-.368.324-.816.324-1.344s-.104-.976-.312-1.344-.48-.64-.816-.816c-.336-.184-.7-.276-1.092-.276-.4,0-.768.092-1.104.276-.328.176-.592.448-.792.816s-.3.816-.3,1.344c0,.536.096.988.288,1.356.2.368.464.644.792.828.328.176.688.264,1.08.264Zm5.9-4.656c.192-.376.464-.668.816-.876.36-.208.796-.312,1.308-.312v1.128h-.288c-1.224,0-1.836.664-1.836,1.992v3.576h-1.092v-6.576h1.092v1.068Zm14.492-1.188c.512,0,.968.108,1.368.324.4.208.716.524.948.948s.348.94.348,1.548v3.876h-1.08v-3.72c0-.656-.164-1.156-.492-1.5-.32-.352-.756-.528-1.308-.528-.568,0-1.02.184-1.356.552-.336.36-.504.884-.504,1.572v3.624h-1.08v-3.72c0-.656-.164-1.156-.492-1.5-.32-.352-.756-.528-1.308-.528-.568,0-1.02.184-1.356.552-.336.36-.504.884-.504,1.572v3.624h-1.092v-6.576h1.092v.948c.216-.344.504-.608.864-.792.368-.184.772-.276,1.212-.276.552,0,1.04.124,1.464.372s.74.612.948,1.092c.184-.464.488-.824.912-1.08s.896-.384,1.416-.384Zm7.323,6.804c-.616,0-1.176-.14-1.68-.42-.496-.28-.888-.676-1.176-1.188-.28-.52-.42-1.12-.42-1.8c0-.672.144-1.264.432-1.776.296-.52.696-.916,1.2-1.188.504-.28,1.068-.42,1.692-.42s1.188.14,1.692.42c.504.272.9.664,1.188,1.176.296.512.444,1.108.444,1.788s-.152,1.28-.456,1.8c-.296.512-.7.908-1.212,1.188s-1.08.42-1.704.42Zm0-.96c.392,0,.76-.092,1.104-.276s.62-.46.828-.828c.216-.368.324-.816.324-1.344s-.104-.976-.312-1.344-.48-.64-.816-.816c-.336-.184-.7-.276-1.092-.276-.4,0-.768.092-1.104.276-.328.176-.592.448-.792.816s-.3.816-.3,1.344c0,.536.096.988.288,1.356.2.368.464.644.792.828.328.176.688.264,1.08.264Zm5.9-4.5c.224-.392.552-.712.984-.96s.924-.372,1.476-.372c.592,0,1.124.14,1.596.42s.844.676,1.116,1.188c.272.504.408,1.092.408,1.764c0,.664-.136,1.256-.408,1.776s-.648.924-1.128,1.212c-.472.288-1,.432-1.584.432-.568,0-1.068-.124-1.5-.372-.424-.248-.744-.564-.96-.948v1.212h-1.092v-8.88h1.092v3.528Zm4.464,2.04c0-.496-.1-.928-.3-1.296s-.472-.648-.816-.84c-.336-.192-.708-.288-1.116-.288-.4,0-.772.1-1.116.3-.336.192-.608.476-.816.852-.2.368-.3.796-.3,1.284c0,.496.1.932.3,1.308.208.368.48.652.816.852.344.192.716.288,1.116.288.408,0,.78-.096,1.116-.288.344-.2.616-.484.816-.852.2-.376.3-.816.3-1.32Zm3.117-4.332c-.208,0-.384-.072-.528-.216s-.216-.32-.216-.528.072-.384.216-.528.32-.216.528-.216c.2,0,.368.072.504.216.144.144.216.32.216.528s-.072.384-.216.528c-.136.144-.304.216-.504.216Zm.528,1.068v6.576h-1.092v-6.576h1.092Zm2.953-2.304v8.88h-1.092v-8.88h1.092Zm7.861,5.34c0,.208-.012.428-.036.66h-5.256c.04.648.26,1.156.66,1.524.408.36.9.54,1.476.54.472,0,.864-.108,1.176-.324.32-.224.544-.52.672-.888h1.176c-.176.632-.528,1.148-1.056,1.548-.528.392-1.184.588-1.968.588-.624,0-1.184-.14-1.68-.42-.488-.28-.872-.676-1.152-1.188-.28-.52-.42-1.12-.42-1.8s.136-1.276.408-1.788.652-.904,1.14-1.176c.496-.28,1.064-.42,1.704-.42.624,0,1.176.136,1.656.408s.848.648,1.104,1.128c.264.472.396,1.008.396,1.608Zm-1.128-.228c0-.416-.092-.772-.276-1.068-.184-.304-.436-.532-.756-.684-.312-.16-.66-.24-1.044-.24-.552,0-1.024.176-1.416.528-.384.352-.604.84-.66,1.464h4.152Zm5.361.456c0-.672.136-1.26.408-1.764.272-.512.644-.908,1.116-1.188.48-.28,1.012-.42,1.596-.42.576,0,1.076.124,1.5.372s.74.56.948.936v-1.2h1.104v6.576h-1.104v-1.224c-.216.384-.54.704-.972.96-.424.248-.92.372-1.488.372-.584,0-1.112-.144-1.584-.432s-.844-.692-1.116-1.212-.408-1.112-.408-1.776Zm5.568.012c0-.496-.1-.928-.3-1.296s-.472-.648-.816-.84c-.336-.2-.708-.3-1.116-.3s-.78.096-1.116.288-.604.472-.804.84-.3.8-.3,1.296c0,.504.1.944.3,1.32.2.368.468.652.804.852.336.192.708.288,1.116.288s.78-.096,1.116-.288c.344-.2.616-.484.816-.852.2-.376.3-.812.3-1.308Zm4.041-2.064c.216-.376.536-.688.96-.936.432-.256.932-.384,1.5-.384.584,0,1.112.14,1.584.42.48.28.856.676,1.128,1.188.272.504.408,1.092.408,1.764c0,.664-.136,1.256-.408,1.776s-.648.924-1.128,1.212c-.472.288-1,.432-1.584.432-.56,0-1.056-.124-1.488-.372-.424-.256-.748-.572-.972-.948v4.332h-1.092v-9.696h1.092v1.212Zm4.464,2.052c0-.496-.1-.928-.3-1.296s-.472-.648-.816-.84c-.336-.192-.708-.288-1.116-.288-.4,0-.772.1-1.116.3-.336.192-.608.476-.816.852-.2.368-.3.796-.3,1.284c0,.496.1.932.3,1.308.208.368.48.652.816.852.344.192.716.288,1.116.288.408,0,.78-.096,1.116-.288.344-.2.616-.484.816-.852.2-.376.3-.816.3-1.32Zm3.646-2.052c.216-.376.536-.688.96-.936.432-.256.932-.384,1.5-.384.584,0,1.112.14,1.584.42.48.28.856.676,1.128,1.188.272.504.408,1.092.408,1.764c0,.664-.136,1.256-.408,1.776s-.648.924-1.128,1.212c-.472.288-1,.432-1.584.432-.56,0-1.056-.124-1.488-.372-.424-.256-.748-.572-.972-.948v4.332h-1.092v-9.696h1.092v1.212Zm4.464,2.052c0-.496-.1-.928-.3-1.296s-.472-.648-.816-.84c-.336-.192-.708-.288-1.116-.288-.4,0-.772.1-1.116.3-.336.192-.608.476-.816.852-.2.368-.3.796-.3,1.284c0,.496.1.932.3,1.308.208.368.48.652.816.852.344.192.716.288,1.116.288.408,0,.78-.096,1.116-.288.344-.2.616-.484.816-.852.2-.376.3-.816.3-1.32Zm4.881,3.42c-.504,0-.956-.084-1.356-.252-.4-.176-.716-.416-.948-.72-.232-.312-.36-.668-.384-1.068h1.128c.032.328.184.596.456.804.28.208.644.312,1.092.312.416,0,.744-.092.984-.276s.36-.416.36-.696c0-.288-.128-.5-.384-.636-.256-.144-.652-.284-1.188-.42-.488-.128-.888-.256-1.2-.384-.304-.136-.568-.332-.792-.588-.216-.264-.324-.608-.324-1.032c0-.336.1-.644.3-.924s.484-.5.852-.66c.368-.168.788-.252,1.26-.252.728,0,1.316.184,1.764.552s.688.872.72,1.512h-1.092c-.024-.344-.164-.62-.42-.828-.248-.208-.584-.312-1.008-.312-.392,0-.704.084-.936.252s-.348.388-.348.66c0,.216.068.396.204.54.144.136.32.248.528.336.216.08.512.172.888.276.472.128.856.256,1.152.384.296.12.548.304.756.552.216.248.328.572.336.972c0,.36-.1.684-.3.972s-.484.516-.852.684c-.36.16-.776.24-1.248.24Zm-119.578,14.58c0-.672.136-1.26.408-1.764.272-.512.644-.908,1.116-1.188.48-.28,1.012-.42,1.596-.42.576,0,1.076.124,1.5.372s.74.56.948.936v-1.2h1.104v6.576h-1.104v-1.224c-.216.384-.54.704-.972.96-.424.248-.92.372-1.488.372-.584,0-1.112-.144-1.584-.432s-.844-.692-1.116-1.212-.408-1.112-.408-1.776Zm5.568.012c0-.496-.1-.928-.3-1.296s-.472-.648-.816-.84c-.336-.2-.708-.3-1.116-.3s-.78.096-1.116.288-.604.472-.804.84-.3.8-.3,1.296c0,.504.1.944.3,1.32.2.368.468.652.804.852.336.192.708.288,1.116.288s.78-.096,1.116-.288c.344-.2.616-.484.816-.852.2-.376.3-.812.3-1.308Zm6.154-3.396c.8,0,1.448.244,1.944.732.496.48.744,1.176.744,2.088v3.876h-1.08v-3.72c0-.656-.164-1.156-.492-1.5-.328-.352-.776-.528-1.344-.528-.576,0-1.036.18-1.38.54-.336.36-.504.884-.504,1.572v3.636h-1.092v-6.576h1.092v.936c.216-.336.508-.596.876-.78.376-.184.788-.276,1.236-.276Zm10.135.12l-3.96,9.672h-1.128l1.296-3.168-2.652-6.504h1.212l2.064,5.328l2.04-5.328h1.128Zm9.006-.12c.512,0,.968.108,1.368.324.4.208.716.524.948.948s.348.94.348,1.548v3.876h-1.08v-3.72c0-.656-.164-1.156-.492-1.5-.32-.352-.756-.528-1.308-.528-.568,0-1.02.184-1.356.552-.336.36-.504.884-.504,1.572v3.624h-1.08v-3.72c0-.656-.164-1.156-.492-1.5-.32-.352-.756-.528-1.308-.528-.568,0-1.02.184-1.356.552-.336.36-.504.884-.504,1.572v3.624h-1.092v-6.576h1.092v.948c.216-.344.504-.608.864-.792.368-.184.772-.276,1.212-.276.552,0,1.04.124,1.464.372s.74.612.948,1.092c.184-.464.488-.824.912-1.08s.896-.384,1.416-.384Zm7.323,6.804c-.616,0-1.176-.14-1.68-.42-.496-.28-.888-.676-1.176-1.188-.28-.52-.42-1.12-.42-1.8c0-.672.144-1.264.432-1.776.296-.52.696-.916,1.2-1.188.504-.28,1.068-.42,1.692-.42s1.188.14,1.692.42c.504.272.9.664,1.188,1.176.296.512.444,1.108.444,1.788s-.152,1.28-.456,1.8c-.296.512-.7.908-1.212,1.188s-1.08.42-1.704.42Zm0-.96c.392,0,.76-.092,1.104-.276s.62-.46.828-.828c.216-.368.324-.816.324-1.344s-.104-.976-.312-1.344-.48-.64-.816-.816c-.336-.184-.7-.276-1.092-.276-.4,0-.768.092-1.104.276-.328.176-.592.448-.792.816s-.3.816-.3,1.344c0,.536.096.988.288,1.356.2.368.464.644.792.828.328.176.688.264,1.08.264Zm5.9-4.656c.192-.376.464-.668.816-.876.36-.208.796-.312,1.308-.312v1.128h-.288c-1.224,0-1.836.664-1.836,1.992v3.576h-1.092v-6.576h1.092v1.068Zm9.385,1.968c0,.208-.012.428-.036.66h-5.256c.04.648.26,1.156.66,1.524.408.36.9.54,1.476.54.472,0,.864-.108,1.176-.324.32-.224.544-.52.672-.888h1.176c-.176.632-.528,1.148-1.056,1.548-.528.392-1.184.588-1.968.588-.624,0-1.184-.14-1.68-.42-.488-.28-.872-.676-1.152-1.188-.28-.52-.42-1.12-.42-1.8s.136-1.276.408-1.788.652-.904,1.14-1.176c.496-.28,1.064-.42,1.704-.42.624,0,1.176.136,1.656.408s.848.648,1.104,1.128c.264.472.396,1.008.396,1.608Zm-1.128-.228c0-.416-.092-.772-.276-1.068-.184-.304-.436-.532-.756-.684-.312-.16-.66-.24-1.044-.24-.552,0-1.024.176-1.416.528-.384.352-.604.84-.66,1.464h4.152Zm2.917,3.84c-.208,0-.384-.072-.528-.216s-.216-.32-.216-.528.072-.384.216-.528.32-.216.528-.216c.2,0,.368.072.504.216.144.144.216.32.216.528s-.072.384-.216.528c-.136.144-.304.216-.504.216Z"/><path d="M76.056,256.112c-.8213,0-1.5573-.133-2.208-.4s-1.1733-.661-1.568-1.184c-.384-.523-.5867-1.152-.608-1.888h2.912c.0427.416.1867.736.432.96.2453.213.5653.32.96.32.4053,0,.7253-.091.96-.272.2347-.192.352-.453.352-.784c0-.277-.096-.507-.288-.688-.1813-.181-.4107-.331-.688-.448-.2667-.117-.6507-.251-1.152-.4-.7253-.224-1.3173-.448-1.776-.672s-.8533-.555-1.184-.992-.496-1.008-.496-1.712c0-1.045.3787-1.861,1.136-2.448.7573-.597,1.744-.896,2.96-.896c1.2373,0,2.2347.299,2.992.896.7573.587,1.1627,1.408,1.216,2.464h-2.96c-.0213-.363-.1547-.645-.4-.848-.2453-.213-.56-.32-.944-.32-.3307,0-.5973.091-.8.272-.2027.171-.304.421-.304.752c0,.363.1707.645.512.848s.8747.421,1.6.656c.7253.245,1.312.48,1.76.704.4587.224.8533.549,1.184.976s.496.976.496,1.648c0,.64-.1653,1.221-.496,1.744-.32.523-.7893.939-1.408,1.248s-1.3493.464-2.192.464Zm5.2358-4.576c0-.928.1866-1.739.56-2.432.384-.693.912-1.227,1.584-1.6.6826-.373,1.4613-.56,2.336-.56c1.12,0,2.0533.293,2.8.88.7573.587,1.2533,1.413,1.488,2.48h-2.912c-.2454-.683-.72-1.024-1.424-1.024-.5014,0-.9014.197-1.2.592-.2987.384-.448.939-.448,1.664s.1493,1.285.448,1.68c.2986.384.6986.576,1.2.576.704,0,1.1786-.341,1.424-1.024h2.912c-.2347,1.045-.7307,1.867-1.488,2.464s-1.6907.896-2.8.896c-.8747,0-1.6534-.187-2.336-.56-.672-.373-1.2-.907-1.584-1.6-.3734-.693-.56-1.504-.56-2.432Zm9.6875-.016c0-.917.1706-1.723.512-2.416.352-.693.8266-1.227,1.424-1.6.5973-.373,1.264-.56,2-.56.6293,0,1.1786.128,1.648.384.48.256.848.592,1.104,1.008v-1.264h2.7357v8.928h-2.7357v-1.264c-.2667.416-.64.752-1.12,1.008-.4694.256-1.0187.384-1.648.384-.7254,0-1.3867-.187-1.984-.56-.5974-.384-1.072-.923-1.424-1.616-.3414-.704-.512-1.515-.512-2.432Zm6.688.016c0-.683-.192-1.221-.576-1.616-.3734-.395-.832-.592-1.376-.592s-1.008.197-1.392.592c-.3734.384-.56.917-.56,1.6s.1866,1.227.56,1.632c.384.395.848.592,1.392.592s1.0026-.197,1.376-.592c.384-.395.576-.933.576-1.616Zm10.1557-4.56c1.045,0,1.877.341,2.496,1.024.629.672.944,1.6.944,2.784v5.216h-2.72v-4.848c0-.597-.155-1.061-.464-1.392-.31-.331-.726-.496-1.248-.496-.523,0-.939.165-1.248.496-.31.331-.464.795-.464,1.392v4.848h-2.736v-8.928h2.736v1.184c.277-.395.65-.704,1.12-.928.469-.235.997-.352,1.584-.352ZM125.147,256l-1.04-1.008c-1.035.789-2.272,1.184-3.712,1.184-.864,0-1.616-.139-2.256-.416-.64-.288-1.136-.688-1.488-1.2-.342-.523-.512-1.131-.512-1.824c0-.704.186-1.339.56-1.904.384-.576.954-1.045,1.712-1.408-.278-.341-.475-.667-.592-.976-.118-.32-.176-.667-.176-1.04c0-.533.138-1.019.416-1.456.277-.437.677-.779,1.2-1.024.533-.256,1.162-.384,1.888-.384.736,0,1.36.133,1.872.4s.896.624,1.152,1.072.373.939.352,1.472h-2.576c.01-.288-.064-.507-.224-.656-.15-.16-.352-.24-.608-.24s-.47.075-.64.224c-.171.149-.256.341-.256.576c0,.224.069.459.208.704.149.245.378.528.688.848l2.736,2.672c.021-.053.048-.117.08-.192.042-.075.085-.16.128-.256l.592-1.008h2.736l-.768,1.392c-.288.629-.619,1.227-.992,1.792L128.331,256h-3.184Zm-4.624-2.032c.714,0,1.349-.203,1.904-.608l-2.496-2.416c-.768.395-1.152.928-1.152,1.6c0,.405.154.747.464,1.024.32.267.746.4,1.28.4Zm14.924-7.008v2.272h3.664v2.112h-3.664v2.464h4.144v2.192h-6.88v-11.232h6.88v2.192h-4.144Zm11.2,9.04l-1.712-2.48-1.44,2.48h-2.96l2.944-4.56-3.024-4.368h3.072l1.712,2.464l1.44-2.464h2.96l-2.992,4.496L149.719,256h-3.072Zm6.862-7.664c.267-.416.635-.752,1.104-1.008.47-.256,1.019-.384,1.648-.384.736,0,1.403.187,2,.56.598.373,1.067.907,1.408,1.6.352.693.528,1.499.528,2.416s-.176,1.728-.528,2.432c-.341.693-.81,1.232-1.408,1.616-.597.373-1.264.56-2,.56-.618,0-1.168-.128-1.648-.384-.469-.256-.837-.587-1.104-.992v5.504h-2.736v-13.184h2.736v1.264Zm3.904,3.184c0-.683-.192-1.216-.576-1.6-.373-.395-.837-.592-1.392-.592-.544,0-1.008.197-1.392.592-.373.395-.56.933-.56,1.616s.187,1.221.56,1.616c.384.395.848.592,1.392.592s1.008-.197,1.392-.592c.384-.405.576-.949.576-1.632Zm12.636-.128c0,.256-.016.523-.048.8h-6.192c.042.555.218.981.528,1.28.32.288.709.432,1.168.432.682,0,1.157-.288,1.424-.864h2.912c-.15.587-.422,1.115-.816,1.584-.384.469-.87.837-1.456,1.104-.587.267-1.243.4-1.968.4-.875,0-1.654-.187-2.336-.56-.683-.373-1.216-.907-1.6-1.6s-.576-1.504-.576-2.432.186-1.739.56-2.432c.384-.693.917-1.227,1.6-1.6.682-.373,1.466-.56,2.352-.56.864,0,1.632.181,2.304.544s1.194.88,1.568,1.552c.384.672.576,1.456.576,2.352Zm-2.8-.72c0-.469-.16-.843-.48-1.12s-.72-.416-1.2-.416c-.459,0-.848.133-1.168.4-.31.267-.502.645-.576,1.136h3.424Zm6.979-2.112c.32-.491.72-.875,1.2-1.152.48-.288,1.013-.432,1.6-.432v2.896h-.752c-.683,0-1.195.149-1.536.448-.341.288-.512.8-.512,1.536v4.144h-2.736v-8.928h2.736v1.488Zm5.484-2.416c-.48,0-.875-.139-1.184-.416-.299-.288-.448-.64-.448-1.056c0-.427.149-.779.448-1.056.309-.288.704-.432,1.184-.432.469,0,.853.144,1.152.432.309.277.464.629.464,1.056c0,.416-.155.768-.464,1.056-.299.277-.683.416-1.152.416Zm1.36.928v8.928h-2.736v-8.928h2.736Zm10.398,4.32c0,.256-.015.523-.047.8h-6.192c.042.555.218.981.528,1.28.32.288.709.432,1.168.432.682,0,1.157-.288,1.424-.864h2.912c-.15.587-.422,1.115-.816,1.584-.384.469-.87.837-1.456,1.104-.587.267-1.243.4-1.968.4-.875,0-1.654-.187-2.336-.56-.683-.373-1.216-.907-1.6-1.6s-.576-1.504-.576-2.432.186-1.739.56-2.432c.384-.693.917-1.227,1.6-1.6.682-.373,1.466-.56,2.352-.56.864,0,1.632.181,2.304.544s1.194.88,1.568,1.552c.384.672.575,1.456.575,2.352Zm-2.799-.72c0-.469-.16-.843-.48-1.12s-.72-.416-1.2-.416c-.459,0-.848.133-1.168.4-.31.267-.502.645-.576,1.136h3.424Zm9.683-3.696c1.045,0,1.877.341,2.496,1.024.629.672.944,1.6.944,2.784v5.216h-2.72v-4.848c0-.597-.155-1.061-.464-1.392s-.725-.496-1.248-.496-.939.165-1.248.496-.464.795-.464,1.392v4.848h-2.736v-8.928h2.736v1.184c.277-.395.651-.704,1.12-.928.469-.235.997-.352,1.584-.352Zm4.797,4.56c0-.928.187-1.739.56-2.432.384-.693.912-1.227,1.584-1.6.683-.373,1.461-.56,2.336-.56c1.12,0,2.053.293,2.8.88.757.587,1.253,1.413,1.488,2.48h-2.912c-.245-.683-.72-1.024-1.424-1.024-.501,0-.901.197-1.2.592-.299.384-.448.939-.448,1.664s.149,1.285.448,1.68c.299.384.699.576,1.2.576.704,0,1.179-.341,1.424-1.024h2.912c-.235,1.045-.731,1.867-1.488,2.464s-1.691.896-2.8.896c-.875,0-1.653-.187-2.336-.56-.672-.373-1.2-.907-1.584-1.6-.373-.693-.56-1.504-.56-2.432Zm18.648-.144c0,.256-.016.523-.048.8h-6.192c.042.555.218.981.528,1.28.32.288.709.432,1.168.432.682,0,1.157-.288,1.424-.864h2.912c-.15.587-.422,1.115-.816,1.584-.384.469-.87.837-1.456,1.104-.587.267-1.243.4-1.968.4-.875,0-1.654-.187-2.336-.56-.683-.373-1.216-.907-1.6-1.6s-.576-1.504-.576-2.432.186-1.739.56-2.432c.384-.693.917-1.227,1.6-1.6.682-.373,1.466-.56,2.352-.56.864,0,1.632.181,2.304.544s1.194.88,1.568,1.552c.384.672.576,1.456.576,2.352Zm-2.8-.72c0-.469-.16-.843-.48-1.12s-.72-.416-1.2-.416c-.459,0-.848.133-1.168.4-.31.267-.502.645-.576,1.136h3.424Z"/><g><ellipse rx="13.5" ry="0.5" transform="translate(147.5 229.5)" fill="#333"/></g></g><g id="eumxbwGnBKO65" transform="translate(303-1.5)"><g><rect width="128" height="93" rx="10" ry="10" transform="translate(16 108)" fill="#dbddfe"/><rect width="128" height="93" rx="10" ry="10" transform="translate(16 215)" fill="#fedbf2"/><rect width="128" height="93" rx="10" ry="10" transform="translate(150 108)" fill="#e7fedb"/><rect width="128" height="93" rx="10" ry="10" transform="translate(150 215)" fill="#fee4db"/><rect width="128" height="93" rx="10" ry="10" transform="translate(83 322)" fill="#fef0db"/></g><path d="M86,132h-12c-2.2091,0-4,1.791-4,4v10c0,2.209,1.7909,4,4,4h12c2.2091,0,4-1.791,4-4v-10c0-2.209-1.7909-4-4-4Z" fill="none" stroke="#333" stroke-width="2" stroke-linecap="round" stroke-linejoin="round"/><path d="M70,138h20m-14-8v4-4Zm8,0v4-4Z" fill="none" stroke="#333" stroke-width="2" stroke-linecap="round" stroke-linejoin="round"/><path d="M42.428,175.296h-3.492l-.6,1.704h-1.428l2.988-8.352h1.584L44.468,177h-1.44l-.6-1.704Zm-.384-1.116l-1.356-3.876-1.368,3.876h2.724Zm5.0912-2.82c.232-.304.548-.56.948-.768s.852-.312,1.356-.312c.576,0,1.1.144,1.572.432.48.28.856.676,1.128,1.188s.408,1.1.408,1.764-.136,1.26-.408,1.788c-.272.52-.648.928-1.128,1.224-.472.288-.996.432-1.572.432-.504,0-.952-.1-1.344-.3-.392-.208-.712-.464-.96-.768v4.104h-1.368v-9.756h1.368v.972Zm4.02,2.304c0-.456-.096-.848-.288-1.176-.184-.336-.432-.588-.744-.756-.304-.176-.632-.264-.984-.264-.344,0-.672.088-.984.264-.304.176-.552.432-.744.768-.184.336-.276.732-.276,1.188s.092.856.276,1.2c.192.336.44.592.744.768.312.176.64.264.984.264.352,0,.68-.088.984-.264.312-.184.56-.448.744-.792.192-.344.288-.744.288-1.2Zm4.1128-2.304c.232-.304.548-.56.948-.768s.852-.312,1.356-.312c.576,0,1.1.144,1.572.432.48.28.856.676,1.128,1.188s.408,1.1.408,1.764-.136,1.26-.408,1.788c-.272.52-.648.928-1.128,1.224-.472.288-.996.432-1.572.432-.504,0-.952-.1-1.344-.3-.392-.208-.712-.464-.96-.768v4.104h-1.368v-9.756h1.368v.972Zm4.02,2.304c0-.456-.096-.848-.288-1.176-.184-.336-.432-.588-.744-.756-.304-.176-.632-.264-.984-.264-.344,0-.672.088-.984.264-.304.176-.552.432-.744.768-.184.336-.276.732-.276,1.188s.092.856.276,1.2c.192.336.44.592.744.768.312.176.64.264.984.264.352,0,.68-.088.984-.264.312-.184.56-.448.744-.792.192-.344.288-.744.288-1.2Zm5.6128,3.444c-.624,0-1.188-.14-1.692-.42-.504-.288-.9-.688-1.188-1.2-.288-.52-.432-1.12-.432-1.8c0-.672.148-1.268.444-1.788s.7-.92,1.212-1.2s1.084-.42,1.716-.42s1.204.14,1.716.42.916.68,1.212,1.2.444,1.116.444,1.788-.152,1.268-.456,1.788-.72.924-1.248,1.212c-.52.28-1.096.42-1.728.42Zm0-1.188c.352,0,.68-.084.984-.252.312-.168.564-.42.756-.756s.288-.744.288-1.224-.092-.884-.276-1.212c-.184-.336-.428-.588-.732-.756s-.632-.252-.984-.252-.68.084-.984.252c-.296.168-.532.42-.708.756-.176.328-.264.732-.264,1.212c0,.712.18,1.264.54,1.656.368.384.828.576,1.38.576Zm5.4804-6.408c-.248,0-.456-.084-.624-.252s-.252-.376-.252-.624.084-.456.252-.624.376-.252.624-.252c.24,0,.444.084.612.252s.252.376.252.624-.084.456-.252.624-.372.252-.612.252Zm.672.876v6.612h-1.368v-6.612h1.368Zm5.132-.108c.52,0,.984.108,1.392.324.416.216.74.536.972.96s.348.936.348,1.536v3.9h-1.356v-3.696c0-.592-.148-1.044-.444-1.356-.296-.32-.7-.48-1.212-.48s-.92.16-1.224.48c-.296.312-.444.764-.444,1.356v3.696h-1.368v-6.612h1.368v.756c.224-.272.508-.484.852-.636.352-.152.724-.228,1.116-.228Zm6.053,1.224v3.66c0,.248.056.428.168.54.12.104.32.156.6.156h.84v1.14h-1.08c-.616,0-1.088-.144-1.416-.432s-.492-.756-.492-1.404v-3.66h-.78v-1.116h.78v-1.644h1.38v1.644h1.608v1.116h-1.608ZM93.111,170.28c.52,0,.984.108,1.392.324.416.216.74.536.972.96.24.424.36.936.36,1.536v3.9h-1.356v-3.696c0-.592-.148-1.044-.444-1.356-.296-.32-.7-.48-1.212-.48s-.92.16-1.224.48c-.296.312-.444.764-.444,1.356v3.696h-1.356v-3.696c0-.592-.148-1.044-.444-1.356-.296-.32-.7-.48-1.212-.48s-.92.16-1.224.48c-.296.312-.444.764-.444,1.356v3.696h-1.368v-6.612h1.368v.756c.224-.272.508-.484.852-.636s.712-.228,1.104-.228c.528,0,1,.112,1.416.336s.736.548.96.972c.2-.4.512-.716.936-.948.424-.24.88-.36,1.368-.36Zm10.525,3.252c0,.248-.016.472-.048.672h-5.0522c.04.528.236.952.588,1.272s.784.48,1.2962.48c.736,0,1.256-.308,1.56-.924h1.476c-.2.608-.564,1.108-1.092,1.5-.52.384-1.168.576-1.944.576-.6322,0-1.2002-.14-1.7042-.42-.496-.288-.888-.688-1.176-1.2-.28-.52-.42-1.12-.42-1.8s.136-1.276.408-1.788c.28-.52.668-.92,1.164-1.2.504-.28,1.08-.42,1.7282-.42.624,0,1.18.136,1.668.408s.868.656,1.14,1.152c.272.488.408,1.052.408,1.692Zm-1.428-.432c-.008-.504-.188-.908-.54-1.212s-.788-.456-1.308-.456c-.4722,0-.8762.152-1.2122.456-.336.296-.536.7-.6,1.212h3.6602Zm6.11-2.82c.52,0,.984.108,1.392.324.416.216.74.536.972.96s.348.936.348,1.536v3.9h-1.356v-3.696c0-.592-.148-1.044-.444-1.356-.296-.32-.7-.48-1.212-.48s-.92.16-1.224.48c-.296.312-.444.764-.444,1.356v3.696h-1.368v-6.612h1.368v.756c.224-.272.508-.484.852-.636.352-.152.724-.228,1.116-.228Zm6.053,1.224v3.66c0,.248.056.428.168.54.12.104.32.156.6.156h.84v1.14h-1.08c-.616,0-1.088-.144-1.416-.432s-.492-.756-.492-1.404v-3.66h-.78v-1.116h.78v-1.644h1.38v1.644h1.608v1.116h-1.608Zm5.269,5.604c-.52,0-.988-.092-1.404-.276-.408-.192-.732-.448-.972-.768-.24-.328-.368-.692-.384-1.092h1.416c.024.28.156.516.396.708.248.184.556.276.924.276.384,0,.68-.072.888-.216.216-.152.324-.344.324-.576c0-.248-.12-.432-.36-.552-.232-.12-.604-.252-1.116-.396-.496-.136-.9-.268-1.212-.396s-.584-.324-.816-.588c-.224-.264-.336-.612-.336-1.044c0-.352.104-.672.312-.96.208-.296.504-.528.888-.696.392-.168.84-.252,1.344-.252.752,0,1.356.192,1.812.576.464.376.712.892.744,1.548h-1.368c-.024-.296-.144-.532-.36-.708s-.508-.264-.876-.264c-.36,0-.636.068-.828.204s-.288.316-.288.54c0,.176.064.324.192.444s.284.216.468.288c.184.064.456.148.816.252.48.128.872.26,1.176.396.312.128.58.32.804.576s.34.596.348,1.02c0,.376-.104.712-.312,1.008s-.504.528-.888.696c-.376.168-.82.252-1.332.252Z" fill="#333"/><path d="M73,257c-.8333,0-1.5417-.292-2.125-.875s-.875-1.292-.875-2.125v-14c0-.833.2917-1.542.875-2.125s1.2917-.875,2.125-.875h14c.8333,0,1.5417.292,2.125.875s.875,1.292.875,2.125v14c0,.833-.2917,1.542-.875,2.125s-1.2917.875-2.125.875h-14Zm0-2h14c.2833,0,.5207-.096.712-.288.192-.191.288-.429.288-.712v-14c0-.283-.096-.521-.288-.713-.1913-.191-.4287-.287-.712-.287h-14c-.2833,0-.521.096-.713.287-.1913.192-.287.43-.287.713v14c0,.283.0957.521.287.712.192.192.4297.288.713.288Zm1-2l4-4l1.8,1.775L82,248l4,5h-12Zm2-8c-.55,0-1.0207-.196-1.412-.588-.392-.391-.588-.862-.588-1.412s.196-1.021.588-1.412c.3913-.392.862-.588,1.412-.588s1.021.196,1.413.588c.3913.391.587.862.587,1.412s-.1957,1.021-.587,1.412c-.392.392-.863.588-1.413.588Z" fill="#333"/><path d="M29.648,284.084c-.56,0-1.064-.096-1.512-.288-.448-.2-.8-.48-1.056-.84s-.384-.78-.384-1.26h1.464c.032.36.172.656.42.888.256.232.612.348,1.068.348.472,0,.84-.112,1.104-.336.264-.232.396-.528.396-.888c0-.28-.084-.508-.252-.684-.16-.176-.364-.312-.612-.408-.24-.096-.576-.2-1.008-.312-.544-.144-.988-.288-1.332-.432-.336-.152-.624-.384-.864-.696s-.36-.728-.36-1.248c0-.48.12-.9.36-1.26s.576-.636,1.008-.828.932-.288,1.5-.288c.808,0,1.468.204,1.98.612.52.4.808.952.864,1.656h-1.512c-.024-.304-.168-.564-.432-.78s-.612-.324-1.044-.324c-.392,0-.712.1-.96.3s-.372.488-.372.864c0,.256.076.468.228.636.16.16.36.288.6.384s.568.2.984.312c.552.152,1,.304,1.344.456.352.152.648.388.888.708.248.312.372.732.372,1.26c0,.424-.116.824-.348,1.2-.224.376-.556.68-.996.912-.432.224-.944.336-1.536.336Zm7.9142-6.804c.504,0,.952.108,1.344.324.4.216.712.536.936.96.232.424.348.936.348,1.536v3.9h-1.356v-3.696c0-.592-.148-1.044-.444-1.356-.296-.32-.7-.48-1.212-.48s-.92.16-1.224.48c-.296.312-.444.764-.444,1.356v3.696h-1.368v-8.88h1.368v3.036c.232-.28.524-.496.876-.648.36-.152.752-.228,1.176-.228Zm7.241,6.828c-.624,0-1.188-.14-1.692-.42-.504-.288-.9-.688-1.188-1.2-.288-.52-.432-1.12-.432-1.8c0-.672.148-1.268.444-1.788s.7-.92,1.212-1.2s1.084-.42,1.716-.42s1.204.14,1.716.42.916.68,1.212,1.2.444,1.116.444,1.788-.152,1.268-.456,1.788-.72.924-1.248,1.212c-.52.28-1.096.42-1.728.42Zm0-1.188c.352,0,.68-.084.984-.252.312-.168.564-.42.756-.756s.288-.744.288-1.224-.092-.884-.276-1.212c-.184-.336-.428-.588-.732-.756s-.632-.252-.984-.252-.68.084-.984.252c-.296.168-.532.42-.708.756-.176.328-.264.732-.264,1.212c0,.712.18,1.264.54,1.656.368.384.828.576,1.38.576Zm13.6643-5.532L56.4155,284h-1.44l-1.332-4.884L52.3115,284h-1.44l-2.064-6.612h1.392l1.38,5.316l1.404-5.316h1.428l1.344,5.292l1.368-5.292h1.344Zm.5663,3.3c0-.68.136-1.276.408-1.788.28-.52.664-.92,1.152-1.2s1.048-.42,1.68-.42c.8,0,1.46.192,1.98.576.528.376.884.916,1.068,1.62h-1.476c-.12-.328-.312-.584-.576-.768s-.596-.276-.996-.276c-.56,0-1.008.2-1.344.6-.328.392-.492.944-.492,1.656s.164,1.268.492,1.668c.336.4.784.6,1.344.6.792,0,1.316-.348,1.572-1.044h1.476c-.192.672-.552,1.208-1.08,1.608-.528.392-1.184.588-1.968.588-.632,0-1.192-.14-1.68-.42-.488-.288-.872-.688-1.152-1.2-.272-.52-.408-1.12-.408-1.8Zm7.1954-.024c0-.664.136-1.252.408-1.764.28-.512.656-.908,1.128-1.188.48-.288,1.008-.432,1.584-.432.52,0,.972.104,1.356.312.392.2.704.452.936.756v-.96h1.38v6.612h-1.38v-.984c-.232.312-.548.572-.948.78s-.856.312-1.368.312c-.568,0-1.088-.144-1.56-.432-.472-.296-.848-.704-1.128-1.224-.272-.528-.408-1.124-.408-1.788Zm5.412.024c0-.456-.096-.852-.288-1.188-.184-.336-.428-.592-.732-.768s-.632-.264-.984-.264-.68.088-.984.264c-.304.168-.552.42-.744.756-.184.328-.276.72-.276,1.176s.092.856.276,1.2c.192.344.44.608.744.792.312.176.64.264.984.264.352,0,.68-.088.984-.264s.548-.432.732-.768c.192-.344.288-.744.288-1.2Zm5.5768,3.42c-.52,0-.988-.092-1.404-.276-.408-.192-.732-.448-.972-.768-.24-.328-.368-.692-.384-1.092h1.416c.024.28.156.516.396.708.248.184.556.276.924.276.384,0,.68-.072.888-.216.216-.152.324-.344.324-.576c0-.248-.12-.432-.36-.552-.232-.12-.604-.252-1.116-.396-.496-.136-.9-.268-1.212-.396s-.584-.324-.816-.588c-.224-.264-.336-.612-.336-1.044c0-.352.104-.672.312-.96.208-.296.504-.528.888-.696.392-.168.84-.252,1.344-.252.752,0,1.356.192,1.812.576.464.376.712.892.744,1.548h-1.368c-.024-.296-.144-.532-.36-.708s-.508-.264-.876-.264c-.36,0-.636.068-.828.204s-.288.316-.288.54c0,.176.064.324.192.444s.284.216.468.288c.184.064.456.148.816.252.48.128.872.26,1.176.396.312.128.58.32.804.576s.34.596.348,1.02c0,.376-.104.712-.312,1.008s-.504.528-.888.696c-.376.168-.82.252-1.332.252Zm10.0701-3.576c0,.248-.016.472-.048.672h-5.052c.04.528.236.952.588,1.272s.784.48,1.296.48c.736,0,1.256-.308,1.56-.924h1.476c-.2.608-.564,1.108-1.092,1.5-.52.384-1.168.576-1.944.576-.632,0-1.2-.14-1.704-.42-.496-.288-.888-.688-1.176-1.2-.28-.52-.42-1.12-.42-1.8s.136-1.276.408-1.788c.28-.52.668-.92,1.164-1.2.504-.28,1.08-.42,1.728-.42.624,0,1.18.136,1.668.408s.868.656,1.14,1.152c.272.488.408,1.052.408,1.692Zm-1.428-.432c-.008-.504-.188-.908-.54-1.212s-.788-.456-1.308-.456c-.472,0-.876.152-1.212.456-.336.296-.536.7-.6,1.212h3.66Zm11.9275-2.04c-.216-.416-.516-.728-.9-.936-.384-.216-.828-.324-1.332-.324-.552,0-1.044.124-1.476.372s-.772.6-1.02,1.056c-.24.456-.36.984-.36,1.584s.12,1.132.36,1.596c.248.456.588.808,1.02,1.056s.924.372,1.476.372c.744,0,1.348-.208,1.812-.624s.748-.98.852-1.692h-3.132v-1.092h4.596v1.068c-.088.648-.32,1.244-.696,1.788-.368.544-.852.98-1.452,1.308-.592.32-1.252.48-1.98.48-.784,0-1.5-.18-2.148-.54-.648-.368-1.164-.876-1.548-1.524-.376-.648-.564-1.38-.564-2.196s.188-1.548.564-2.196c.384-.648.9-1.152,1.548-1.512.656-.368,1.372-.552,2.148-.552.888,0,1.676.22,2.364.66.696.432,1.2,1.048,1.512,1.848h-1.644Zm2.7894,2.604c0-.664.136-1.252.408-1.764.28-.512.656-.908,1.128-1.188.48-.288,1.008-.432,1.584-.432.52,0,.972.104,1.356.312.392.2.704.452.936.756v-.96h1.38v6.612h-1.38v-.984c-.232.312-.548.572-.948.78s-.856.312-1.368.312c-.568,0-1.088-.144-1.56-.432-.472-.296-.848-.704-1.128-1.224-.272-.528-.408-1.124-.408-1.788Zm5.412.024c0-.456-.096-.852-.288-1.188-.184-.336-.428-.592-.732-.768s-.632-.264-.984-.264-.68.088-.984.264c-.304.168-.552.42-.744.756-.184.328-.276.72-.276,1.176s.092.856.276,1.2c.192.344.44.608.744.792.312.176.64.264.984.264.352,0,.68-.088.984-.264s.548-.432.732-.768c.192-.344.288-.744.288-1.2Zm4.545-5.568v8.88h-1.368v-8.88h1.368Zm3.164,0v8.88h-1.368v-8.88h1.368Zm7.856,5.412c0,.248-.016.472-.048.672h-5.052c.04.528.236.952.588,1.272s.784.48,1.296.48c.736,0,1.256-.308,1.56-.924h1.476c-.2.608-.564,1.108-1.092,1.5-.52.384-1.168.576-1.944.576-.632,0-1.2-.14-1.704-.42-.496-.288-.888-.688-1.176-1.2-.28-.52-.42-1.12-.42-1.8s.136-1.276.408-1.788c.28-.52.668-.92,1.164-1.2.504-.28,1.08-.42,1.728-.42.624,0,1.18.136,1.668.408s.868.656,1.14,1.152c.272.488.408,1.052.408,1.692Zm-1.428-.432c-.008-.504-.188-.908-.54-1.212s-.788-.456-1.308-.456c-.472,0-.876.152-1.212.456-.336.296-.536.7-.6,1.212h3.66Zm4.142-1.752c.2-.336.464-.596.792-.78.336-.192.732-.288,1.188-.288v1.416h-.348c-.536,0-.944.136-1.224.408-.272.272-.408.744-.408,1.416v3.48h-1.368v-6.612h1.368v.96Zm9.189-.96l-4.056,9.72h-1.416l1.344-3.216-2.604-6.504h1.524l1.86,5.04l1.932-5.04h1.416Z" fill="#333"/><path d="M214,141c1.657,0,3-1.343,3-3s-1.343-3-3-3-3,1.343-3,3s1.343,3,3,3Z" fill="none" stroke="#333" stroke-width="2" stroke-linecap="round" stroke-linejoin="round"/><path d="M214,130c-2.122,0-4.157.843-5.657,2.343s-2.343,3.535-2.343,5.657c0,1.892.402,3.13,1.5,4.5L214,150l6.5-7.5c1.098-1.37,1.5-2.608,1.5-4.5c0-2.122-.843-4.157-2.343-5.657s-3.535-2.343-5.657-2.343v0Z" fill="none" stroke="#333" stroke-width="2" stroke-linecap="round" stroke-linejoin="round"/><path d="M176.648,177.084c-.56,0-1.064-.096-1.512-.288-.448-.2-.8-.48-1.056-.84s-.384-.78-.384-1.26h1.464c.032.36.172.656.42.888.256.232.612.348,1.068.348.472,0,.84-.112,1.104-.336.264-.232.396-.528.396-.888c0-.28-.084-.508-.252-.684-.16-.176-.364-.312-.612-.408-.24-.096-.576-.2-1.008-.312-.544-.144-.988-.288-1.332-.432-.336-.152-.624-.384-.864-.696s-.36-.728-.36-1.248c0-.48.12-.9.36-1.26s.576-.636,1.008-.828.932-.288,1.5-.288c.808,0,1.468.204,1.98.612.52.4.808.952.864,1.656h-1.512c-.024-.304-.168-.564-.432-.78s-.612-.324-1.044-.324c-.392,0-.712.1-.96.3s-.372.488-.372.864c0,.256.076.468.228.636.16.16.36.288.6.384s.568.2.984.312c.552.152,1,.304,1.344.456.352.152.648.388.888.708.248.312.372.732.372,1.26c0,.424-.116.824-.348,1.2-.224.376-.556.68-.996.912-.432.224-.944.336-1.536.336Zm10.554-3.552c0,.248-.016.472-.048.672h-5.052c.04.528.236.952.588,1.272s.784.48,1.296.48c.736,0,1.256-.308,1.56-.924h1.476c-.2.608-.564,1.108-1.092,1.5-.52.384-1.168.576-1.944.576-.632,0-1.2-.14-1.704-.42-.496-.288-.888-.688-1.176-1.2-.28-.52-.42-1.12-.42-1.8s.136-1.276.408-1.788c.28-.52.668-.92,1.164-1.2.504-.28,1.08-.42,1.728-.42.624,0,1.18.136,1.668.408s.868.656,1.14,1.152c.272.488.408,1.052.408,1.692Zm-1.428-.432c-.008-.504-.188-.908-.54-1.212s-.788-.456-1.308-.456c-.472,0-.876.152-1.212.456-.336.296-.536.7-.6,1.212h3.66Zm4.142-4.98v8.88h-1.368v-8.88h1.368Zm4.569,3.384h-1.224v5.496h-1.38v-5.496h-.78v-1.116h.78v-.468c0-.76.2-1.312.6-1.656.408-.352,1.044-.528,1.908-.528v1.14c-.416,0-.708.08-.876.24-.168.152-.252.42-.252.804v.468h1.224v1.116Zm3.873,1.308c0-.816.188-1.548.564-2.196.384-.648.9-1.152,1.548-1.512.656-.368,1.372-.552,2.148-.552.888,0,1.676.22,2.364.66.696.432,1.2,1.048,1.512,1.848h-1.644c-.216-.44-.516-.768-.9-.984s-.828-.324-1.332-.324c-.552,0-1.044.124-1.476.372s-.772.604-1.02,1.068c-.24.464-.36,1.004-.36,1.62s.12,1.156.36,1.62c.248.464.588.824,1.02,1.08.432.248.924.372,1.476.372.504,0,.948-.108,1.332-.324s.684-.544.9-.984h1.644c-.312.8-.816,1.416-1.512,1.848-.688.432-1.476.648-2.364.648-.784,0-1.5-.18-2.148-.54-.648-.368-1.164-.876-1.548-1.524-.376-.648-.564-1.38-.564-2.196Zm13.157-2.532c.504,0,.952.108,1.344.324.4.216.712.536.936.96.232.424.348.936.348,1.536v3.9h-1.356v-3.696c0-.592-.148-1.044-.444-1.356-.296-.32-.7-.48-1.212-.48s-.92.16-1.224.48c-.296.312-.444.764-.444,1.356v3.696h-1.368v-8.88h1.368v3.036c.232-.28.524-.496.876-.648.36-.152.752-.228,1.176-.228Zm10.433,3.252c0,.248-.016.472-.048.672h-5.052c.04.528.236.952.588,1.272s.784.48,1.296.48c.736,0,1.256-.308,1.56-.924h1.476c-.2.608-.564,1.108-1.092,1.5-.52.384-1.168.576-1.944.576-.632,0-1.2-.14-1.704-.42-.496-.288-.888-.688-1.176-1.2-.28-.52-.42-1.12-.42-1.8s.136-1.276.408-1.788c.28-.52.668-.92,1.164-1.2.504-.28,1.08-.42,1.728-.42.624,0,1.18.136,1.668.408s.868.656,1.14,1.152c.272.488.408,1.052.408,1.692Zm-1.428-.432c-.008-.504-.188-.908-.54-1.212s-.788-.456-1.308-.456c-.472,0-.876.152-1.212.456-.336.296-.536.7-.6,1.212h3.66Zm2.319.588c0-.68.136-1.276.408-1.788.28-.52.664-.92,1.152-1.2s1.048-.42,1.68-.42c.8,0,1.46.192,1.98.576.528.376.884.916,1.068,1.62h-1.476c-.12-.328-.312-.584-.576-.768s-.596-.276-.996-.276c-.56,0-1.008.2-1.344.6-.328.392-.492.944-.492,1.656s.164,1.268.492,1.668c.336.4.784.6,1.344.6.792,0,1.316-.348,1.572-1.044h1.476c-.192.672-.552,1.208-1.08,1.608-.528.392-1.184.588-1.968.588-.632,0-1.192-.14-1.68-.42-.488-.288-.872-.688-1.152-1.2-.272-.52-.408-1.12-.408-1.8Zm10.267.012l3.048,3.3h-1.848l-2.448-2.844v2.844h-1.368v-8.88h1.368v5.16l2.4-2.892h1.896l-3.048,3.312Zm9.104-1.62v1.152h-4.932v-1.152h4.932Zm2.64-2.568c-.248,0-.456-.084-.624-.252s-.252-.376-.252-.624.084-.456.252-.624.376-.252.624-.252c.24,0,.444.084.612.252s.252.376.252.624-.084.456-.252.624-.372.252-.612.252Zm.672.876v6.612h-1.368v-6.612h1.368Zm5.132-.108c.52,0,.984.108,1.392.324.416.216.74.536.972.96s.348.936.348,1.536v3.9h-1.356v-3.696c0-.592-.148-1.044-.444-1.356-.296-.32-.7-.48-1.212-.48s-.92.16-1.224.48c-.296.312-.444.764-.444,1.356v3.696h-1.368v-6.612h1.368v.756c.224-.272.508-.484.852-.636.352-.152.724-.228,1.116-.228Z" fill="#333"/><path d="M223.41,246.58l-9-9c-.36-.36-.86-.58-1.41-.58h-7c-1.1,0-2,.9-2,2v7c0,.55.22,1.05.59,1.42l9,9c.36.36.86.58,1.41.58s1.05-.22,1.41-.59l7-7c.37-.36.59-.86.59-1.41s-.23-1.06-.59-1.42ZM215,255.01L206,246v-7h7v-.01l9,9-7,7.02v0Z" fill="#333"/><path d="M208.5,243c.828,0,1.5-.672,1.5-1.5s-.672-1.5-1.5-1.5-1.5.672-1.5,1.5.672,1.5,1.5,1.5Z" fill="#333"/><path d="M167.148,284.084c-.56,0-1.064-.096-1.512-.288-.448-.2-.8-.48-1.056-.84s-.384-.78-.384-1.26h1.464c.032.36.172.656.42.888.256.232.612.348,1.068.348.472,0,.84-.112,1.104-.336.264-.232.396-.528.396-.888c0-.28-.084-.508-.252-.684-.16-.176-.364-.312-.612-.408-.24-.096-.576-.2-1.008-.312-.544-.144-.988-.288-1.332-.432-.336-.152-.624-.384-.864-.696s-.36-.728-.36-1.248c0-.48.12-.9.36-1.26s.576-.636,1.008-.828.932-.288,1.5-.288c.808,0,1.468.204,1.98.612.52.4.808.952.864,1.656h-1.512c-.024-.304-.168-.564-.432-.78s-.612-.324-1.044-.324c-.392,0-.712.1-.96.3s-.372.488-.372.864c0,.256.076.468.228.636.16.16.36.288.6.384s.568.2.984.312c.552.152,1,.304,1.344.456.352.152.648.388.888.708.248.312.372.732.372,1.26c0,.424-.116.824-.348,1.2-.224.376-.556.68-.996.912-.432.224-.944.336-1.536.336Zm7.914-6.804c.504,0,.952.108,1.344.324.4.216.712.536.936.96.232.424.348.936.348,1.536v3.9h-1.356v-3.696c0-.592-.148-1.044-.444-1.356-.296-.32-.7-.48-1.212-.48s-.92.16-1.224.48c-.296.312-.444.764-.444,1.356v3.696h-1.368v-8.88h1.368v3.036c.232-.28.524-.496.876-.648.36-.152.752-.228,1.176-.228Zm7.241,6.828c-.624,0-1.188-.14-1.692-.42-.504-.288-.9-.688-1.188-1.2-.288-.52-.432-1.12-.432-1.8c0-.672.148-1.268.444-1.788s.7-.92,1.212-1.2s1.084-.42,1.716-.42s1.204.14,1.716.42.916.68,1.212,1.2.444,1.116.444,1.788-.152,1.268-.456,1.788-.72.924-1.248,1.212c-.52.28-1.096.42-1.728.42Zm0-1.188c.352,0,.68-.084.984-.252.312-.168.564-.42.756-.756s.288-.744.288-1.224-.092-.884-.276-1.212c-.184-.336-.428-.588-.732-.756s-.632-.252-.984-.252-.68.084-.984.252c-.296.168-.532.42-.708.756-.176.328-.264.732-.264,1.212c0,.712.18,1.264.54,1.656.368.384.828.576,1.38.576Zm13.665-5.532L193.916,284h-1.44l-1.332-4.884L189.812,284h-1.44l-2.064-6.612h1.392l1.38,5.316l1.404-5.316h1.428l1.344,5.292l1.368-5.292h1.344Zm.566,3.3c0-.68.136-1.276.408-1.788.28-.52.664-.92,1.152-1.2s1.048-.42,1.68-.42c.8,0,1.46.192,1.98.576.528.376.884.916,1.068,1.62h-1.476c-.12-.328-.312-.584-.576-.768s-.596-.276-.996-.276c-.56,0-1.008.2-1.344.6-.328.392-.492.944-.492,1.656s.164,1.268.492,1.668c.336.4.784.6,1.344.6.792,0,1.316-.348,1.572-1.044h1.476c-.192.672-.552,1.208-1.08,1.608-.528.392-1.184.588-1.968.588-.632,0-1.192-.14-1.68-.42-.488-.288-.872-.688-1.152-1.2-.272-.52-.408-1.12-.408-1.8Zm7.195-.024c0-.664.136-1.252.408-1.764.28-.512.656-.908,1.128-1.188.48-.288,1.008-.432,1.584-.432.52,0,.972.104,1.356.312.392.2.704.452.936.756v-.96h1.38v6.612h-1.38v-.984c-.232.312-.548.572-.948.78s-.856.312-1.368.312c-.568,0-1.088-.144-1.56-.432-.472-.296-.848-.704-1.128-1.224-.272-.528-.408-1.124-.408-1.788Zm5.412.024c0-.456-.096-.852-.288-1.188-.184-.336-.428-.592-.732-.768s-.632-.264-.984-.264-.68.088-.984.264c-.304.168-.552.42-.744.756-.184.328-.276.72-.276,1.176s.092.856.276,1.2c.192.344.44.608.744.792.312.176.64.264.984.264.352,0,.68-.088.984-.264s.548-.432.732-.768c.192-.344.288-.744.288-1.2Zm5.577,3.42c-.52,0-.988-.092-1.404-.276-.408-.192-.732-.448-.972-.768-.24-.328-.368-.692-.384-1.092h1.416c.024.28.156.516.396.708.248.184.556.276.924.276.384,0,.68-.072.888-.216.216-.152.324-.344.324-.576c0-.248-.12-.432-.36-.552-.232-.12-.604-.252-1.116-.396-.496-.136-.9-.268-1.212-.396s-.584-.324-.816-.588c-.224-.264-.336-.612-.336-1.044c0-.352.104-.672.312-.96.208-.296.504-.528.888-.696.392-.168.84-.252,1.344-.252.752,0,1.356.192,1.812.576.464.376.712.892.744,1.548h-1.368c-.024-.296-.144-.532-.36-.708s-.508-.264-.876-.264c-.36,0-.636.068-.828.204s-.288.316-.288.54c0,.176.064.324.192.444s.284.216.468.288c.184.064.456.148.816.252.48.128.872.26,1.176.396.312.128.58.32.804.576s.34.596.348,1.02c0,.376-.104.712-.312,1.008s-.504.528-.888.696c-.376.168-.82.252-1.332.252Zm10.07-3.576c0,.248-.016.472-.048.672h-5.052c.04.528.236.952.588,1.272s.784.48,1.296.48c.736,0,1.256-.308,1.56-.924h1.476c-.2.608-.564,1.108-1.092,1.5-.52.384-1.168.576-1.944.576-.632,0-1.2-.14-1.704-.42-.496-.288-.888-.688-1.176-1.2-.28-.52-.42-1.12-.42-1.8s.136-1.276.408-1.788c.28-.52.668-.92,1.164-1.2.504-.28,1.08-.42,1.728-.42.624,0,1.18.136,1.668.408s.868.656,1.14,1.152c.272.488.408,1.052.408,1.692Zm-1.428-.432c-.008-.504-.188-.908-.54-1.212s-.788-.456-1.308-.456c-.472,0-.876.152-1.212.456-.336.296-.536.7-.6,1.212h3.66Zm9.696,3.984c-.776,0-1.492-.18-2.148-.54-.648-.368-1.164-.876-1.548-1.524-.376-.656-.564-1.392-.564-2.208s.188-1.548.564-2.196c.384-.648.9-1.152,1.548-1.512.656-.368,1.372-.552,2.148-.552.784,0,1.5.184,2.148.552.656.36,1.172.864,1.548,1.512s.564,1.38.564,2.196-.188,1.552-.564,2.208c-.376.648-.892,1.156-1.548,1.524-.648.36-1.364.54-2.148.54Zm0-1.188c.552,0,1.044-.124,1.476-.372.432-.256.768-.616,1.008-1.08.248-.472.372-1.016.372-1.632s-.124-1.156-.372-1.62c-.24-.464-.576-.82-1.008-1.068s-.924-.372-1.476-.372-1.044.124-1.476.372-.772.604-1.02,1.068c-.24.464-.36,1.004-.36,1.62s.12,1.16.36,1.632c.248.464.588.824,1.02,1.08.432.248.924.372,1.476.372Zm8.378-4.392h-1.224v5.496h-1.38v-5.496h-.78v-1.116h.78v-.468c0-.76.2-1.312.6-1.656.408-.352,1.044-.528,1.908-.528v1.14c-.416,0-.708.08-.876.24-.168.152-.252.42-.252.804v.468h1.224v1.116Zm3.984,0h-1.224v5.496h-1.38v-5.496h-.78v-1.116h.78v-.468c0-.76.2-1.312.6-1.656.408-.352,1.044-.528,1.908-.528v1.14c-.416,0-.708.08-.876.24-.168.152-.252.42-.252.804v.468h1.224v1.116Zm7.272,2.028c0,.248-.016.472-.048.672h-5.052c.04.528.236.952.588,1.272s.784.48,1.296.48c.736,0,1.256-.308,1.56-.924h1.476c-.2.608-.564,1.108-1.092,1.5-.52.384-1.168.576-1.944.576-.632,0-1.2-.14-1.704-.42-.496-.288-.888-.688-1.176-1.2-.28-.52-.42-1.12-.42-1.8s.136-1.276.408-1.788c.28-.52.668-.92,1.164-1.2.504-.28,1.08-.42,1.728-.42.624,0,1.18.136,1.668.408s.868.656,1.14,1.152c.272.488.408,1.052.408,1.692Zm-1.428-.432c-.008-.504-.188-.908-.54-1.212s-.788-.456-1.308-.456c-.472,0-.876.152-1.212.456-.336.296-.536.7-.6,1.212h3.66Zm4.143-1.752c.2-.336.464-.596.792-.78.336-.192.732-.288,1.188-.288v1.416h-.348c-.536,0-.944.136-1.224.408-.272.272-.408.744-.408,1.416v3.48h-1.368v-6.612h1.368v.96Zm5.637,5.76c-.52,0-.988-.092-1.404-.276-.408-.192-.732-.448-.972-.768-.24-.328-.368-.692-.384-1.092h1.416c.024.28.156.516.396.708.248.184.556.276.924.276.384,0,.68-.072.888-.216.216-.152.324-.344.324-.576c0-.248-.12-.432-.36-.552-.232-.12-.604-.252-1.116-.396-.496-.136-.9-.268-1.212-.396s-.584-.324-.816-.588c-.224-.264-.336-.612-.336-1.044c0-.352.104-.672.312-.96.208-.296.504-.528.888-.696.392-.168.84-.252,1.344-.252.752,0,1.356.192,1.812.576.464.376.712.892.744,1.548h-1.368c-.024-.296-.144-.532-.36-.708s-.508-.264-.876-.264c-.36,0-.636.068-.828.204s-.288.316-.288.54c0,.176.064.324.192.444s.284.216.468.288c.184.064.456.148.816.252.48.128.872.26,1.176.396.312.128.58.32.804.576s.34.596.348,1.02c0,.376-.104.712-.312,1.008s-.504.528-.888.696c-.376.168-.82.252-1.332.252Z" fill="#333"/><path d="M157,343h-7c-.573-.002-1.128.197-1.568.562-.441.366-.739.875-.842,1.438l-.92,5.05c-.064.352-.049.713.043,1.059.091.346.258.667.487.941.231.274.518.495.843.647s.679.232,1.037.233h2.92l-.25.66c-.185.489-.249,1.016-.187,1.535.062.52.248,1.017.542,1.449s.688.788,1.148,1.036c.461.248.974.382,1.497.39.194.002.384-.053.548-.158.163-.105.292-.255.372-.432l2.24-5.06c.051-.11.082-.229.09-.35v-8c0-.265-.105-.52-.293-.707-.187-.188-.442-.293-.707-.293Zm-1,8.73l-1.83,4.13c-.179-.097-.333-.234-.45-.4-.118-.167-.192-.36-.217-.562-.024-.203.002-.408.077-.598l.38-1c.1-.259.134-.539.099-.815s-.138-.539-.299-.765c-.159-.225-.37-.409-.616-.534-.246-.126-.518-.189-.794-.186h-3.29c-.066,0-.132-.014-.193-.042-.06-.027-.114-.068-.157-.118-.078-.107-.11-.24-.09-.37l.92-5c-.004-.062.005-.124.026-.182.021-.059.055-.112.098-.156.044-.045.096-.079.154-.102s.12-.033.182-.03h6v6.73Zm-11.06,3.32h-2.89l.25-.66c.182-.492.242-1.021.176-1.542-.066-.52-.257-1.017-.557-1.448-.299-.431-.698-.783-1.163-1.027s-.981-.372-1.506-.373c-.194-.002-.384.053-.548.158-.163.105-.292.255-.372.432l-2.24,5.06c-.057.126-.088.262-.09.4v8c0,.265.105.52.293.707.187.188.442.293.707.293h7c.573.002,1.128-.197,1.568-.562.441-.366.739-.875.842-1.438l.92-5c.064-.352.049-.713-.043-1.059-.091-.346-.258-.667-.487-.941-.217-.294-.496-.536-.818-.709-.321-.173-.677-.272-1.042-.291v0Zm-.48,7.58c-.017.108-.074.205-.159.274-.085.068-.192.102-.301.096h-6v-6.73l1.83-4.13c.179.097.333.234.45.4.118.167.192.36.217.562.024.203-.002.408-.077.598l-.38,1c-.1.259-.134.539-.099.815s.138.539.299.765c.157.229.367.416.613.545s.519.196.797.195h3.29c.066,0,.132.014.193.042.06.027.114.068.157.118.078.107.11.24.09.37l-.92,5.08Z" fill="#333"/><path d="M127.732,391l-1.92-3.336h-1.044v3.336h-1.368v-8.34h2.88c.64,0,1.18.112,1.62.336.448.224.78.524.996.9.224.376.336.796.336,1.26c0,.544-.16,1.04-.48,1.488-.312.44-.796.74-1.452.9L129.364,391h-1.632Zm-2.964-4.428h1.512c.512,0,.896-.128,1.152-.384.264-.256.396-.6.396-1.032s-.128-.768-.384-1.008c-.256-.248-.644-.372-1.164-.372h-1.512v2.796Zm12.274.96c0,.248-.016.472-.048.672h-5.052c.04.528.236.952.588,1.272s.784.48,1.296.48c.736,0,1.256-.308,1.56-.924h1.476c-.2.608-.564,1.108-1.092,1.5-.52.384-1.168.576-1.944.576-.632,0-1.2-.14-1.704-.42-.496-.288-.888-.688-1.176-1.2-.28-.52-.42-1.12-.42-1.8s.136-1.276.408-1.788c.28-.52.668-.92,1.164-1.2.504-.28,1.08-.42,1.728-.42.624,0,1.18.136,1.668.408s.868.656,1.14,1.152c.272.488.408,1.052.408,1.692Zm-1.428-.432c-.008-.504-.188-.908-.54-1.212s-.788-.456-1.308-.456c-.472,0-.876.152-1.212.456-.336.296-.536.7-.6,1.212h3.66Zm5.33,2.676l1.872-5.388h1.452L141.748,391h-1.632l-2.508-6.612h1.464l1.872,5.388Zm5.054-6.264c-.248,0-.456-.084-.624-.252s-.252-.376-.252-.624.084-.456.252-.624.376-.252.624-.252c.24,0,.444.084.612.252s.252.376.252.624-.084.456-.252.624-.372.252-.612.252Zm.672.876v6.612h-1.368v-6.612h1.368Zm7.856,3.144c0,.248-.016.472-.048.672h-5.052c.04.528.236.952.588,1.272s.784.48,1.296.48c.736,0,1.256-.308,1.56-.924h1.476c-.2.608-.564,1.108-1.092,1.5-.52.384-1.168.576-1.944.576-.632,0-1.2-.14-1.704-.42-.496-.288-.888-.688-1.176-1.2-.28-.52-.42-1.12-.42-1.8s.136-1.276.408-1.788c.28-.52.668-.92,1.164-1.2.504-.28,1.08-.42,1.728-.42.624,0,1.18.136,1.668.408s.868.656,1.14,1.152c.272.488.408,1.052.408,1.692Zm-1.428-.432c-.008-.504-.188-.908-.54-1.212s-.788-.456-1.308-.456c-.472,0-.876.152-1.212.456-.336.296-.536.7-.6,1.212h3.66Zm11.655-2.712L162.701,391h-1.44l-1.332-4.884L158.597,391h-1.44l-2.064-6.612h1.392l1.38,5.316l1.404-5.316h1.428l1.344,5.292l1.368-5.292h1.344Zm3.422,6.72c-.52,0-.988-.092-1.404-.276-.408-.192-.732-.448-.972-.768-.24-.328-.368-.692-.384-1.092h1.416c.024.28.156.516.396.708.248.184.556.276.924.276.384,0,.68-.072.888-.216.216-.152.324-.344.324-.576c0-.248-.12-.432-.36-.552-.232-.12-.604-.252-1.116-.396-.496-.136-.9-.268-1.212-.396s-.584-.324-.816-.588c-.224-.264-.336-.612-.336-1.044c0-.352.104-.672.312-.96.208-.296.504-.528.888-.696.392-.168.84-.252,1.344-.252.752,0,1.356.192,1.812.576.464.376.712.892.744,1.548h-1.368c-.024-.296-.144-.532-.36-.708s-.508-.264-.876-.264c-.36,0-.636.068-.828.204s-.288.316-.288.54c0,.176.064.324.192.444s.284.216.468.288c.184.064.456.148.816.252.48.128.872.26,1.176.396.312.128.58.32.804.576s.34.596.348,1.02c0,.376-.104.712-.312,1.008s-.504.528-.888.696c-.376.168-.82.252-1.332.252Z" fill="#333"/></g></g><mask id="eumxbwGnBKO85" mask-type="alpha"><rect width="294" height="524" rx="20" ry="20" fill="#fff"/></mask></g><ellipse id="eumxbwGnBKO87" rx="0" ry="0" transform="translate(157 364)" fill="#fff" stroke-width="0"/><rect id="eumxbwGnBKO88" width="157.793809" height="0" rx="0" ry="0" transform="matrix(1 0 0 8.416042 65.847311 129.999983)" fill="#fbd74d" stroke-width="0"/><script><![CDATA[!function(t,n){"object"==typeof exports&&"undefined"!=typeof module?module.exports=n():"function"==typeof define&&define.amd?define(n):((t="undefined"!=typeof globalThis?globalThis:t||self).__SVGATOR_PLAYER__=t.__SVGATOR_PLAYER__||{},t.__SVGATOR_PLAYER__["5c7f360c"]=n())}(this,(function(){"use strict";function t(t,n){var e=Object.keys(t);if(Object.getOwnPropertySymbols){var r=Object.getOwnPropertySymbols(t);n&&(r=r.filter((function(n){return Object.getOwnPropertyDescriptor(t,n).enumerable}))),e.push.apply(e,r)}return e}function n(n){for(var e=1;e<arguments.length;e++){var r=null!=arguments[e]?arguments[e]:{};e%2?t(Object(r),!0).forEach((function(t){o(n,t,r[t])})):Object.getOwnPropertyDescriptors?Object.defineProperties(n,Object.getOwnPropertyDescriptors(r)):t(Object(r)).forEach((function(t){Object.defineProperty(n,t,Object.getOwnPropertyDescriptor(r,t))}))}return n}function e(t){return(e="function"==typeof Symbol&&"symbol"==typeof Symbol.iterator?function(t){return typeof t}:function(t){return t&&"function"==typeof Symbol&&t.constructor===Symbol&&t!==Symbol.prototype?"symbol":typeof t})(t)}function r(t,n){if(!(t instanceof n))throw new TypeError("Cannot call a class as a function")}function i(t,n){for(var e=0;e<n.length;e++){var r=n[e];r.enumerable=r.enumerable||!1,r.configurable=!0,"value"in r&&(r.writable=!0),Object.defineProperty(t,r.key,r)}}function u(t,n,e){return n&&i(t.prototype,n),e&&i(t,e),t}function o(t,n,e){return n in t?Object.defineProperty(t,n,{value:e,enumerable:!0,configurable:!0,writable:!0}):t[n]=e,t}function a(t){return(a=Object.setPrototypeOf?Object.getPrototypeOf:function(t){return t.__proto__||Object.getPrototypeOf(t)})(t)}function l(t,n){return(l=Object.setPrototypeOf||function(t,n){return t.__proto__=n,t})(t,n)}function s(){if("undefined"==typeof Reflect||!Reflect.construct)return!1;if(Reflect.construct.sham)return!1;if("function"==typeof Proxy)return!0;try{return Boolean.prototype.valueOf.call(Reflect.construct(Boolean,[],(function(){}))),!0}catch(t){return!1}}function f(t,n,e){return(f=s()?Reflect.construct:function(t,n,e){var r=[null];r.push.apply(r,n);var i=new(Function.bind.apply(t,r));return e&&l(i,e.prototype),i}).apply(null,arguments)}function c(t,n){if(n&&("object"==typeof n||"function"==typeof n))return n;if(void 0!==n)throw new TypeError("Derived constructors may only return object or undefined");return function(t){if(void 0===t)throw new ReferenceError("this hasn't been initialised - super() hasn't been called");return t}(t)}function h(t,n,e){return(h="undefined"!=typeof Reflect&&Reflect.get?Reflect.get:function(t,n,e){var r=function(t,n){for(;!Object.prototype.hasOwnProperty.call(t,n)&&null!==(t=a(t)););return t}(t,n);if(r){var i=Object.getOwnPropertyDescriptor(r,n);return i.get?i.get.call(e):i.value}})(t,n,e||t)}function v(t){return function(t){if(Array.isArray(t))return y(t)}(t)||function(t){if("undefined"!=typeof Symbol&&null!=t[Symbol.iterator]||null!=t["@@iterator"])return Array.from(t)}(t)||function(t,n){if(!t)return;if("string"==typeof t)return y(t,n);var e=Object.prototype.toString.call(t).slice(8,-1);"Object"===e&&t.constructor&&(e=t.constructor.name);if("Map"===e||"Set"===e)return Array.from(t);if("Arguments"===e||/^(?:Ui|I)nt(?:8|16|32)(?:Clamped)?Array$/.test(e))return y(t,n)}(t)||function(){throw new TypeError("Invalid attempt to spread non-iterable instance.\nIn order to be iterable, non-array objects must have a [Symbol.iterator]() method.")}()}function y(t,n){(null==n||n>t.length)&&(n=t.length);for(var e=0,r=new Array(n);e<n;e++)r[e]=t[e];return r}Number.isInteger||(Number.isInteger=function(t){return"number"==typeof t&&isFinite(t)&&Math.floor(t)===t}),Number.EPSILON||(Number.EPSILON=2220446049250313e-31);var g=d(Math.pow(10,-6));function d(t){var n=arguments.length>1&&void 0!==arguments[1]?arguments[1]:6;if(Number.isInteger(t))return t;var e=Math.pow(10,n);return Math.round((+t+Number.EPSILON)*e)/e}function p(t,n){var e=arguments.length>2&&void 0!==arguments[2]?arguments[2]:g;return Math.abs(t-n)<e}var m=Math.PI/180;function b(t){return t}function w(t,n,e){var r=1-e;return 3*e*r*(t*r+n*e)+e*e*e}function x(){var t=arguments.length>0&&void 0!==arguments[0]?arguments[0]:0,n=arguments.length>1&&void 0!==arguments[1]?arguments[1]:0,e=arguments.length>2&&void 0!==arguments[2]?arguments[2]:1,r=arguments.length>3&&void 0!==arguments[3]?arguments[3]:1;return t<0||t>1||e<0||e>1?null:p(t,n)&&p(e,r)?b:function(i){if(i<=0)return t>0?i*n/t:0===n&&e>0?i*r/e:0;if(i>=1)return e<1?1+(i-1)*(r-1)/(e-1):1===e&&t<1?1+(i-1)*(n-1)/(t-1):1;for(var u,o=0,a=1;o<a;){var l=w(t,e,u=(o+a)/2);if(p(i,l))break;l<i?o=u:a=u}return w(n,r,u)}}function A(){return 1}function k(t){return 1===t?1:0}function _(){var t=arguments.length>0&&void 0!==arguments[0]?arguments[0]:1,n=arguments.length>1&&void 0!==arguments[1]?arguments[1]:0;if(1===t){if(0===n)return k;if(1===n)return A}var e=1/t;return function(t){return t>=1?1:(t+=n*e)-t%e}}var S=Math.sin,O=Math.cos,j=Math.acos,M=Math.asin,P=Math.tan,E=Math.atan2,I=Math.PI/180,R=180/Math.PI,F=Math.sqrt,N=function(){function t(){var n=arguments.length>0&&void 0!==arguments[0]?arguments[0]:1,e=arguments.length>1&&void 0!==arguments[1]?arguments[1]:0,i=arguments.length>2&&void 0!==arguments[2]?arguments[2]:0,u=arguments.length>3&&void 0!==arguments[3]?arguments[3]:1,o=arguments.length>4&&void 0!==arguments[4]?arguments[4]:0,a=arguments.length>5&&void 0!==arguments[5]?arguments[5]:0;r(this,t),this.m=[n,e,i,u,o,a],this.i=null,this.w=null,this.s=null}return u(t,[{key:"determinant",get:function(){var t=this.m;return t[0]*t[3]-t[1]*t[2]}},{key:"isIdentity",get:function(){if(null===this.i){var t=this.m;this.i=1===t[0]&&0===t[1]&&0===t[2]&&1===t[3]&&0===t[4]&&0===t[5]}return this.i}},{key:"point",value:function(t,n){var e=this.m;return{x:e[0]*t+e[2]*n+e[4],y:e[1]*t+e[3]*n+e[5]}}},{key:"translateSelf",value:function(){var t=arguments.length>0&&void 0!==arguments[0]?arguments[0]:0,n=arguments.length>1&&void 0!==arguments[1]?arguments[1]:0;if(!t&&!n)return this;var e=this.m;return e[4]+=e[0]*t+e[2]*n,e[5]+=e[1]*t+e[3]*n,this.w=this.s=this.i=null,this}},{key:"rotateSelf",value:function(){var t=arguments.length>0&&void 0!==arguments[0]?arguments[0]:0;if(t%=360){var n=S(t*=I),e=O(t),r=this.m,i=r[0],u=r[1];r[0]=i*e+r[2]*n,r[1]=u*e+r[3]*n,r[2]=r[2]*e-i*n,r[3]=r[3]*e-u*n,this.w=this.s=this.i=null}return this}},{key:"scaleSelf",value:function(){var t=arguments.length>0&&void 0!==arguments[0]?arguments[0]:1,n=arguments.length>1&&void 0!==arguments[1]?arguments[1]:1;if(1!==t||1!==n){var e=this.m;e[0]*=t,e[1]*=t,e[2]*=n,e[3]*=n,this.w=this.s=this.i=null}return this}},{key:"skewSelf",value:function(t,n){if(n%=360,(t%=360)||n){var e=this.m,r=e[0],i=e[1],u=e[2],o=e[3];t&&(t=P(t*I),e[2]+=r*t,e[3]+=i*t),n&&(n=P(n*I),e[0]+=u*n,e[1]+=o*n),this.w=this.s=this.i=null}return this}},{key:"resetSelf",value:function(){var t=arguments.length>0&&void 0!==arguments[0]?arguments[0]:1,n=arguments.length>1&&void 0!==arguments[1]?arguments[1]:0,e=arguments.length>2&&void 0!==arguments[2]?arguments[2]:0,r=arguments.length>3&&void 0!==arguments[3]?arguments[3]:1,i=arguments.length>4&&void 0!==arguments[4]?arguments[4]:0,u=arguments.length>5&&void 0!==arguments[5]?arguments[5]:0,o=this.m;return o[0]=t,o[1]=n,o[2]=e,o[3]=r,o[4]=i,o[5]=u,this.w=this.s=this.i=null,this}},{key:"recomposeSelf",value:function(){var t=arguments.length>0&&void 0!==arguments[0]?arguments[0]:null,n=arguments.length>1&&void 0!==arguments[1]?arguments[1]:null,e=arguments.length>2&&void 0!==arguments[2]?arguments[2]:null,r=arguments.length>3&&void 0!==arguments[3]?arguments[3]:null,i=arguments.length>4&&void 0!==arguments[4]?arguments[4]:null;return this.isIdentity||this.resetSelf(),t&&(t.x||t.y)&&this.translateSelf(t.x,t.y),n&&this.rotateSelf(n),e&&(e.x&&this.skewSelf(e.x,0),e.y&&this.skewSelf(0,e.y)),!r||1===r.x&&1===r.y||this.scaleSelf(r.x,r.y),i&&(i.x||i.y)&&this.translateSelf(i.x,i.y),this}},{key:"decompose",value:function(){var t=arguments.length>0&&void 0!==arguments[0]?arguments[0]:0,n=arguments.length>1&&void 0!==arguments[1]?arguments[1]:0,e=this.m,r=e[0]*e[0]+e[1]*e[1],i=[[e[0],e[1]],[e[2],e[3]]],u=F(r);if(0===u)return{origin:{x:d(e[4]),y:d(e[5])},translate:{x:d(t),y:d(n)},scale:{x:0,y:0},skew:{x:0,y:0},rotate:0};i[0][0]/=u,i[0][1]/=u;var o=e[0]*e[3]-e[1]*e[2]<0;o&&(u=-u);var a=i[0][0]*i[1][0]+i[0][1]*i[1][1];i[1][0]-=i[0][0]*a,i[1][1]-=i[0][1]*a;var l=F(i[1][0]*i[1][0]+i[1][1]*i[1][1]);if(0===l)return{origin:{x:d(e[4]),y:d(e[5])},translate:{x:d(t),y:d(n)},scale:{x:d(u),y:0},skew:{x:0,y:0},rotate:0};i[1][0]/=l,i[1][1]/=l,a/=l;var s=0;return i[1][1]<0?(s=j(i[1][1])*R,i[0][1]<0&&(s=360-s)):s=M(i[0][1])*R,o&&(s=-s),a=E(a,F(i[0][0]*i[0][0]+i[0][1]*i[0][1]))*R,o&&(a=-a),{origin:{x:d(e[4]),y:d(e[5])},translate:{x:d(t),y:d(n)},scale:{x:d(u),y:d(l)},skew:{x:d(a),y:0},rotate:d(s)}}},{key:"clone",value:function(){var t=this.m;return new this.constructor(t[0],t[1],t[2],t[3],t[4],t[5])}},{key:"toString",value:function(){var t=arguments.length>0&&void 0!==arguments[0]?arguments[0]:" ";if(null===this.s){var n=this.m.map((function(t){return d(t)}));1===n[0]&&0===n[1]&&0===n[2]&&1===n[3]?this.s="translate("+n[4]+t+n[5]+")":this.s="matrix("+n.join(t)+")"}return this.s}}],[{key:"create",value:function(t){return t?Array.isArray(t)?f(this,v(t)):t instanceof this?t.clone():(new this).recomposeSelf(t.origin,t.rotate,t.skew,t.scale,t.translate):new this}}]),t}();function T(t,n,e){return t>=.5?e:n}function q(t,n,e){return 0===t||n===e?n:t*(e-n)+n}function B(t,n,e){var r=q(t,n,e);return r<=0?0:r}function L(t,n,e){var r=q(t,n,e);return r<=0?0:r>=1?1:r}function C(t,n,e){return 0===t?n:1===t?e:{x:q(t,n.x,e.x),y:q(t,n.y,e.y)}}function D(t,n,e){var r=function(t,n,e){return Math.round(q(t,n,e))}(t,n,e);return r<=0?0:r>=255?255:r}function z(t,n,e){return 0===t?n:1===t?e:{r:D(t,n.r,e.r),g:D(t,n.g,e.g),b:D(t,n.b,e.b),a:q(t,null==n.a?1:n.a,null==e.a?1:e.a)}}function V(t,n){for(var e=[],r=0;r<t;r++)e.push(n);return e}function G(t,n){if(--n<=0)return t;var e=(t=Object.assign([],t)).length;do{for(var r=0;r<e;r++)t.push(t[r])}while(--n>0);return t}var Y,$=function(){function t(n){r(this,t),this.list=n,this.length=n.length}return u(t,[{key:"setAttribute",value:function(t,n){for(var e=this.list,r=0;r<this.length;r++)e[r].setAttribute(t,n)}},{key:"removeAttribute",value:function(t){for(var n=this.list,e=0;e<this.length;e++)n[e].removeAttribute(t)}},{key:"style",value:function(t,n){for(var e=this.list,r=0;r<this.length;r++)e[r].style[t]=n}}]),t}(),U=/-./g,Q=function(t,n){return n.toUpperCase()};function H(t){return"function"==typeof t?t:T}function J(t){return t?"function"==typeof t?t:Array.isArray(t)?function(t){var n=arguments.length>1&&void 0!==arguments[1]?arguments[1]:b;if(!Array.isArray(t))return n;switch(t.length){case 1:return _(t[0])||n;case 2:return _(t[0],t[1])||n;case 4:return x(t[0],t[1],t[2],t[3])||n}return n}(t,null):function(t,n){var e=arguments.length>2&&void 0!==arguments[2]?arguments[2]:b;switch(t){case"linear":return b;case"steps":return _(n.steps||1,n.jump||0)||e;case"bezier":case"cubic-bezier":return x(n.x1||0,n.y1||0,n.x2||0,n.y2||0)||e}return e}(t.type,t.value,null):null}function Z(t,n,e){var r=arguments.length>3&&void 0!==arguments[3]&&arguments[3],i=n.length-1;if(t<=n[0].t)return r?[0,0,n[0].v]:n[0].v;if(t>=n[i].t)return r?[i,1,n[i].v]:n[i].v;var u,o=n[0],a=null;for(u=1;u<=i;u++){if(!(t>n[u].t)){a=n[u];break}o=n[u]}return null==a?r?[i,1,n[i].v]:n[i].v:o.t===a.t?r?[u,1,a.v]:a.v:(t=(t-o.t)/(a.t-o.t),o.e&&(t=o.e(t)),r?[u,t,e(t,o.v,a.v)]:e(t,o.v,a.v))}function K(t,n){var e=arguments.length>2&&void 0!==arguments[2]?arguments[2]:null;return t&&t.length?"function"!=typeof n?null:("function"!=typeof e&&(e=null),function(r){var i=Z(r,t,n);return null!=i&&e&&(i=e(i)),i}):null}function W(t,n){return t.t-n.t}function X(t,n,r,i,u){var o,a="@"===r[0],l="#"===r[0],s=Y[r],f=T;switch(a?(o=r.substr(1),r=o.replace(U,Q)):l&&(r=r.substr(1)),e(s)){case"function":if(f=s(i,u,Z,J,r,a,n,t),l)return f;break;case"string":f=K(i,H(s));break;case"object":if((f=K(i,H(s.i),s.f))&&"function"==typeof s.u)return s.u(n,f,r,a,t)}return f?function(t,n,e){if(arguments.length>3&&void 0!==arguments[3]&&arguments[3])return t instanceof $?function(r){return t.style(n,e(r))}:function(r){return t.style[n]=e(r)};if(Array.isArray(n)){var r=n.length;return function(i){var u=e(i);if(null==u)for(var o=0;o<r;o++)t[o].removeAttribute(n);else for(var a=0;a<r;a++)t[a].setAttribute(n,u)}}return function(r){var i=e(r);null==i?t.removeAttribute(n):t.setAttribute(n,i)}}(n,r,f,a):null}function tt(t,n,r,i){if(!i||"object"!==e(i))return null;var u=null,o=null;return Array.isArray(i)?o=function(t){if(!t||!t.length)return null;for(var n=0;n<t.length;n++)t[n].e&&(t[n].e=J(t[n].e));return t.sort(W)}(i):(o=i.keys,u=i.data||null),o?X(t,n,r,o,u):null}function nt(t,n,e){if(!e)return null;var r=[];for(var i in e)if(e.hasOwnProperty(i)){var u=tt(t,n,i,e[i]);u&&r.push(u)}return r.length?r:null}function et(t,n){if(!n.settings.duration||n.settings.duration<0)return null;var e,r,i,u,o,a=function(t,n){if(!n)return null;var e=[];if(Array.isArray(n))for(var r=n.length,i=0;i<r;i++){var u=n[i];if(2===u.length){var o=null;if("string"==typeof u[0])o=t.getElementById(u[0]);else if(Array.isArray(u[0])){o=[];for(var a=0;a<u[0].length;a++)if("string"==typeof u[0][a]){var l=t.getElementById(u[0][a]);l&&o.push(l)}o=o.length?1===o.length?o[0]:new $(o):null}if(o){var s=nt(t,o,u[1]);s&&(e=e.concat(s))}}}else for(var f in n)if(n.hasOwnProperty(f)){var c=t.getElementById(f);if(c){var h=nt(t,c,n[f]);h&&(e=e.concat(h))}}return e.length?e:null}(t,n.elements);return a?(e=a,r=n.settings,i=r.duration,u=e.length,o=null,function(t,n){var a=r.iterations||1/0,l=(r.alternate&&a%2==0)^r.direction>0?i:0,s=t%i,f=1+(t-s)/i;n*=r.direction,r.alternate&&f%2==0&&(n=-n);var c=!1;if(f>a)s=l,c=!0,-1===r.fill&&(s=r.direction>0?0:i);else if(n<0&&(s=i-s),s===o)return!1;o=s;for(var h=0;h<u;h++)e[h](s);return c}):null}function rt(t,n){if(Y=n,!t||!t.root||!Array.isArray(t.animations))return null;var e=function(t){for(var n=document.getElementsByTagName("svg"),e=0;e<n.length;e++)if(n[e].id===t.root&&!n[e].svgatorAnimation)return n[e].svgatorAnimation=!0,n[e];return null}(t);if(!e)return null;var r=t.animations.map((function(t){return et(e,t)})).filter((function(t){return!!t}));return r.length?{svg:e,animations:r,animationSettings:t.animationSettings,options:t.options||void 0}:null}function it(t){return+("0x"+(t.replace(/[^0-9a-fA-F]+/g,"")||27))}function ut(t,n,e){return!t||!e||n>t.length?t:t.substring(0,n)+ut(t.substring(n+1),e,e)}function ot(t){var n=arguments.length>1&&void 0!==arguments[1]?arguments[1]:27;return!t||t%n?t%n:ot(t/n,n)}function at(t,n,e){if(t&&t.length){var r=it(e),i=it(n),u=ot(r)+5,o=ut(t,ot(r,5),u);return o=o.replace(/\x7c$/g,"==").replace(/\x2f$/g,"="),o=function(t,n,e){var r=+("0x"+t.substring(0,4));t=t.substring(4);for(var i=n%r+e%27,u=[],o=0;o<t.length;o+=2)if("|"!==t[o]){var a=+("0x"+t[o]+t[o+1])-i;u.push(a)}else{var l=+("0x"+t.substring(o+1,o+1+4))-i;o+=3,u.push(l)}return String.fromCharCode.apply(String,u)}(o=(o=atob(o)).replace(/[\x41-\x5A]/g,""),i,r),o=JSON.parse(o)}}var lt=[{key:"alternate",def:!1},{key:"fill",def:1},{key:"iterations",def:0},{key:"direction",def:1},{key:"speed",def:1},{key:"fps",def:100}],st=function(){function t(n,e){var i=this,u=arguments.length>2&&void 0!==arguments[2]?arguments[2]:null;r(this,t),this._id=0,this._running=!1,this._rollingBack=!1,this._animations=n,this._settings=e,(!u||u<"2022-05-02")&&delete this._settings.speed,lt.forEach((function(t){i._settings[t.key]=i._settings[t.key]||t.def})),this.duration=e.duration,this.offset=e.offset||0,this.rollbackStartOffset=0}return u(t,[{key:"alternate",get:function(){return this._settings.alternate}},{key:"fill",get:function(){return this._settings.fill}},{key:"iterations",get:function(){return this._settings.iterations}},{key:"direction",get:function(){return this._settings.direction}},{key:"speed",get:function(){return this._settings.speed}},{key:"fps",get:function(){return this._settings.fps}},{key:"maxFiniteDuration",get:function(){return this.iterations>0?this.iterations*this.duration:this.duration}},{key:"_apply",value:function(t){for(var n=arguments.length>1&&void 0!==arguments[1]?arguments[1]:{},e=this._animations,r=e.length,i=0,u=0;u<r;u++)n[u]?i++:(n[u]=e[u](t,1),n[u]&&i++);return i}},{key:"_rollback",value:function(t){var n=this,e=1/0,r=null;this.rollbackStartOffset=t,this._rollingBack=!0,this._running=!0;this._id=window.requestAnimationFrame((function i(u){if(n._rollingBack){null==r&&(r=u);var o=Math.round(t-(u-r)*n.speed);if(o>n.duration&&e!==1/0){var a=!!n.alternate&&o/n.duration%2>1,l=o%n.duration;o=(l+=a?n.duration:0)||n.duration}var s=(n.fps?1e3/n.fps:0)*n.speed,f=Math.max(0,o);f<e-s&&(n.offset=f,e=f,n._apply(f));var c=n.iterations>0&&-1===n.fill&&o>=n.maxFiniteDuration;(o<=0||n.offset<o||c)&&n.stop(),n._id=window.requestAnimationFrame(i)}}))}},{key:"_start",value:function(){var t=this,n=arguments.length>0&&void 0!==arguments[0]?arguments[0]:0,e=-1/0,r=null,i={};this._running=!0;var u=function u(o){null==r&&(r=o);var a=Math.round((o-r)*t.speed+n),l=(t.fps?1e3/t.fps:0)*t.speed;if(a>e+l&&!t._rollingBack&&(t.offset=a,e=a,t._apply(a,i)===t._animations.length))return void t.pause(!0);t._id=window.requestAnimationFrame(u)};this._id=window.requestAnimationFrame(u)}},{key:"_pause",value:function(){this._id&&window.cancelAnimationFrame(this._id),this._running=!1}},{key:"play",value:function(){if(!this._running)return this._rollingBack?this._rollback(this.offset):this._start(this.offset)}},{key:"stop",value:function(){this._pause(),this.offset=0,this.rollbackStartOffset=0,this._rollingBack=!1,this._apply(0)}},{key:"reachedToEnd",value:function(){return this.iterations>0&&this.offset>=this.iterations*this.duration}},{key:"restart",value:function(){var t=arguments.length>0&&void 0!==arguments[0]&&arguments[0];this.stop(t),this.play(t)}},{key:"pause",value:function(){this._pause()}},{key:"reverse",value:function(){this.direction=-this.direction}}],[{key:"build",value:function(t,n){delete t.animationSettings,t.options=at(t.options,t.root,"5c7f360c"),t.animations.map((function(n){n.settings=at(n.s,t.root,"5c7f360c"),delete n.s,t.animationSettings||(t.animationSettings=n.settings)}));var e=t.version;if(!(t=rt(t,n)))return null;var r=t.options||{},i=new this(t.animations,t.animationSettings,e);return{el:t.svg,options:r,player:i}}},{key:"push",value:function(t){return this.build(t)}},{key:"init",value:function(){var t=this,n=window.__SVGATOR_PLAYER__&&window.__SVGATOR_PLAYER__["5c7f360c"];Array.isArray(n)&&n.splice(0).forEach((function(n){return t.build(n)}))}}]),t}();function ft(t){return d(t)+""}function ct(t){var n=arguments.length>1&&void 0!==arguments[1]?arguments[1]:" ";return t&&t.length?t.map(ft).join(n):""}function ht(t){if(!t)return"transparent";if(null==t.a||t.a>=1){var n=function(t){return 1===(t=parseInt(t).toString(16)).length?"0"+t:t},e=function(t){return t.charAt(0)===t.charAt(1)},r=n(t.r),i=n(t.g),u=n(t.b);return e(r)&&e(i)&&e(u)&&(r=r.charAt(0),i=i.charAt(0),u=u.charAt(0)),"#"+r+i+u}return"rgba("+t.r+","+t.g+","+t.b+","+t.a+")"}function vt(t){return t?"url(#"+t+")":"none"}!function(){for(var t=0,n=["ms","moz","webkit","o"],e=0;e<n.length&&!window.requestAnimationFrame;++e)window.requestAnimationFrame=window[n[e]+"RequestAnimationFrame"],window.cancelAnimationFrame=window[n[e]+"CancelAnimationFrame"]||window[n[e]+"CancelRequestAnimationFrame"];window.requestAnimationFrame||(window.requestAnimationFrame=function(n){var e=Date.now(),r=Math.max(0,16-(e-t)),i=window.setTimeout((function(){n(e+r)}),r);return t=e+r,i},window.cancelAnimationFrame=window.clearTimeout)}();var yt={f:null,i:function(t,n,e){return 0===t?n:1===t?e:{x:B(t,n.x,e.x),y:B(t,n.y,e.y)}},u:function(t,n){return function(e){var r=n(e);t.setAttribute("rx",ft(r.x)),t.setAttribute("ry",ft(r.y))}}},gt={f:null,i:function(t,n,e){return 0===t?n:1===t?e:{width:B(t,n.width,e.width),height:B(t,n.height,e.height)}},u:function(t,n){return function(e){var r=n(e);t.setAttribute("width",ft(r.width)),t.setAttribute("height",ft(r.height))}}};Object.freeze({M:2,L:2,Z:0,H:1,V:1,C:6,Q:4,T:2,S:4,A:7});var dt={},pt=null;function mt(t){var n=function(){if(pt)return pt;if("object"!==("undefined"==typeof document?"undefined":e(document))||!document.createElementNS)return{};var t=document.createElementNS("http://www.w3.org/2000/svg","svg");return t&&t.style?(t.style.position="absolute",t.style.opacity="0.01",t.style.zIndex="-9999",t.style.left="-9999px",t.style.width="1px",t.style.height="1px",pt={svg:t}):{}}().svg;if(!n)return function(t){return null};var r=document.createElementNS(n.namespaceURI,"path");r.setAttributeNS(null,"d",t),r.setAttributeNS(null,"fill","none"),r.setAttributeNS(null,"stroke","none"),n.appendChild(r);var i=r.getTotalLength();return function(t){var n=r.getPointAtLength(i*t);return{x:n.x,y:n.y}}}function bt(t){return dt[t]?dt[t]:dt[t]=mt(t)}function wt(t,n,e,r){if(!t||!r)return!1;var i=["M",t.x,t.y];if(n&&e&&(i.push("C"),i.push(n.x),i.push(n.y),i.push(e.x),i.push(e.y)),n?!e:e){var u=n||e;i.push("Q"),i.push(u.x),i.push(u.y)}return n||e||i.push("L"),i.push(r.x),i.push(r.y),i.join(" ")}function xt(t,n,e,r){var i=arguments.length>4&&void 0!==arguments[4]?arguments[4]:1,u=wt(t,n,e,r),o=bt(u);try{return o(i)}catch(t){return null}}function At(t,n,e){return t+(n-t)*e}function kt(t,n,e){var r=arguments.length>3&&void 0!==arguments[3]&&arguments[3],i={x:At(t.x,n.x,e),y:At(t.y,n.y,e)};return r&&(i.a=_t(t,n)),i}function _t(t,n){return Math.atan2(n.y-t.y,n.x-t.x)}function St(t,n,e,r){var i=1-r;return i*i*t+2*i*r*n+r*r*e}function Ot(t,n,e,r){return 2*(1-r)*(n-t)+2*r*(e-n)}function jt(t,n,e,r){var i=arguments.length>4&&void 0!==arguments[4]&&arguments[4],u=xt(t,n,null,e,r);return u||(u={x:St(t.x,n.x,e.x,r),y:St(t.y,n.y,e.y,r)}),i&&(u.a=Mt(t,n,e,r)),u}function Mt(t,n,e,r){return Math.atan2(Ot(t.y,n.y,e.y,r),Ot(t.x,n.x,e.x,r))}function Pt(t,n,e,r,i){var u=i*i;return i*u*(r-t+3*(n-e))+3*u*(t+e-2*n)+3*i*(n-t)+t}function Et(t,n,e,r,i){var u=1-i;return 3*(u*u*(n-t)+2*u*i*(e-n)+i*i*(r-e))}function It(t,n,e,r,i){var u=arguments.length>5&&void 0!==arguments[5]&&arguments[5],o=xt(t,n,e,r,i);return o||(o={x:Pt(t.x,n.x,e.x,r.x,i),y:Pt(t.y,n.y,e.y,r.y,i)}),u&&(o.a=Rt(t,n,e,r,i)),o}function Rt(t,n,e,r,i){return Math.atan2(Et(t.y,n.y,e.y,r.y,i),Et(t.x,n.x,e.x,r.x,i))}function Ft(t,n,e){var r=arguments.length>3&&void 0!==arguments[3]&&arguments[3];if(Tt(n)){if(qt(e))return jt(n,e.start,e,t,r)}else if(Tt(e)){if(Bt(n))return jt(n,n.end,e,t,r)}else{if(Bt(n))return qt(e)?It(n,n.end,e.start,e,t,r):jt(n,n.end,e,t,r);if(qt(e))return jt(n,e.start,e,t,r)}return kt(n,e,t,r)}function Nt(t,n,e){var r=Ft(t,n,e,!0);return r.a=function(t){return arguments.length>1&&void 0!==arguments[1]&&arguments[1]?t+Math.PI:t}(r.a)/m,r}function Tt(t){return!t.type||"corner"===t.type}function qt(t){return null!=t.start&&!Tt(t)}function Bt(t){return null!=t.end&&!Tt(t)}var Lt=new N;var Ct={f:ft,i:q},Dt={f:ft,i:L};function zt(t,n,e){return t.map((function(t){return function(t,n,e){var r=t.v;if(!r||"g"!==r.t||r.s||!r.v||!r.r)return t;var i=e.getElementById(r.r),u=i&&i.querySelectorAll("stop")||[];return r.s=r.v.map((function(t,n){var e=u[n]&&u[n].getAttribute("offset");return{c:t,o:e=d(parseInt(e)/100)}})),delete r.v,t}(t,0,e)}))}var Vt={gt:"gradientTransform",c:{x:"cx",y:"cy"},rd:"r",f:{x:"x1",y:"y1"},to:{x:"x2",y:"y2"}};function Gt(t,n,r,i,u,o,a,l){return zt(t,0,l),n=function(t,n,e){for(var r,i,u,o=t.length-1,a={},l=0;l<=o;l++)(r=t[l]).e&&(r.e=n(r.e)),r.v&&"g"===(i=r.v).t&&i.r&&(u=e.getElementById(i.r))&&(a[i.r]={e:u,s:u.querySelectorAll("stop")});return a}(t,i,l),function(i){var u=r(i,t,Yt);if(!u)return"none";if("c"===u.t)return ht(u.v);if("g"===u.t){if(!n[u.r])return vt(u.r);var o=n[u.r];return function(t,n){for(var e=t.s,r=e.length;r<n.length;r++){var i=e[e.length-1].cloneNode();i.id=Qt(i.id),t.e.appendChild(i),e=t.s=t.e.querySelectorAll("stop")}for(var u=0,o=e.length,a=n.length-1;u<o;u++)e[u].setAttribute("stop-color",ht(n[Math.min(u,a)].c)),e[u].setAttribute("offset",n[Math.min(u,a)].o)}(o,u.s),Object.keys(Vt).forEach((function(t){if(void 0!==u[t])if("object"!==e(Vt[t])){var n,r="gt"===t?(n=u[t],Array.isArray(n)?"matrix("+n.join(" ")+")":""):u[t],i=Vt[t];o.e.setAttribute(i,r)}else Object.keys(Vt[t]).forEach((function(n){if(void 0!==u[t][n]){var e=u[t][n],r=Vt[t][n];o.e.setAttribute(r,e)}}))})),vt(u.r)}return"none"}}function Yt(t,e,r){if(0===t)return e;if(1===t)return r;if(e&&r){var i=e.t;if(i===r.t)switch(e.t){case"c":return{t:i,v:z(t,e.v,r.v)};case"g":if(e.r===r.r){var u={t:i,s:$t(t,e.s,r.s),r:e.r};return e.gt&&r.gt&&(u.gt=function(t,n,e){var r=n.length;if(r!==e.length)return T(t,n,e);for(var i=new Array(r),u=0;u<r;u++)i[u]=q(t,n[u],e[u]);return i}(t,e.gt,r.gt)),e.c?(u.c=C(t,e.c,r.c),u.rd=B(t,e.rd,r.rd)):e.f&&(u.f=C(t,e.f,r.f),u.to=C(t,e.to,r.to)),u}}if("c"===e.t&&"g"===r.t||"c"===r.t&&"g"===e.t){var o="c"===e.t?e:r,a="g"===e.t?n({},e):n({},r),l=a.s.map((function(t){return{c:o.v,o:t.o}}));return a.s="c"===e.t?$t(t,l,a.s):$t(t,a.s,l),a}}return T(t,e,r)}function $t(t,n,e){if(n.length===e.length)return n.map((function(n,r){return Ut(t,n,e[r])}));for(var r=Math.max(n.length,e.length),i=[],u=0;u<r;u++){var o=Ut(t,n[Math.min(u,n.length-1)],e[Math.min(u,e.length-1)]);i.push(o)}return i}function Ut(t,n,e){return{o:L(t,n.o,e.o||0),c:z(t,n.c,e.c||{})}}function Qt(t){return t.replace(/-fill-([0-9]+)$/,(function(t,n){return"-fill-"+(+n+1)}))}var Ht={fill:Gt,"fill-opacity":Dt,stroke:Gt,"stroke-opacity":Dt,"stroke-width":Ct,"stroke-dashoffset":{f:ft,i:q},"stroke-dasharray":{f:function(t){var n=arguments.length>1&&void 0!==arguments[1]?arguments[1]:" ";return t&&t.length>0&&(t=t.map((function(t){return d(t,4)}))),ct(t,n)},i:function(t,n,e){var r,i,u,o=n.length,a=e.length;if(o!==a)if(0===o)n=V(o=a,0);else if(0===a)a=o,e=V(o,0);else{var l=(u=(r=o)*(i=a)/function(t,n){for(var e;n;)e=n,n=t%n,t=e;return t||1}(r,i))<0?-u:u;n=G(n,Math.floor(l/o)),e=G(e,Math.floor(l/a)),o=a=l}for(var s=[],f=0;f<o;f++)s.push(d(B(t,n[f],e[f])));return s}},opacity:Dt,transform:function(t,n,r,i){if(!(t=function(t,n){if(!t||"object"!==e(t))return null;var r=!1;for(var i in t)t.hasOwnProperty(i)&&(t[i]&&t[i].length?(t[i].forEach((function(t){t.e&&(t.e=n(t.e))})),r=!0):delete t[i]);return r?t:null}(t,i)))return null;var u=function(e,i,u){var o=arguments.length>3&&void 0!==arguments[3]?arguments[3]:null;return t[e]?r(i,t[e],u):n&&n[e]?n[e]:o};return n&&n.a&&t.o?function(n){var e=r(n,t.o,Nt);return Lt.recomposeSelf(e,u("r",n,q,0)+e.a,u("k",n,C),u("s",n,C),u("t",n,C)).toString()}:function(t){return Lt.recomposeSelf(u("o",t,Ft,null),u("r",t,q,0),u("k",t,C),u("s",t,C),u("t",t,C)).toString()}},r:Ct,"#size":gt,"#radius":yt,_:function(t,n){if(Array.isArray(t))for(var e=0;e<t.length;e++)this[t[e]]=n;else this[t]=n}},Jt=function(t){!function(t,n){if("function"!=typeof n&&null!==n)throw new TypeError("Super expression must either be null or a function");t.prototype=Object.create(n&&n.prototype,{constructor:{value:t,writable:!0,configurable:!0}}),n&&l(t,n)}(o,t);var n,e,i=(n=o,e=s(),function(){var t,r=a(n);if(e){var i=a(this).constructor;t=Reflect.construct(r,arguments,i)}else t=r.apply(this,arguments);return c(this,t)});function o(){return r(this,o),i.apply(this,arguments)}return u(o,null,[{key:"build",value:function(t){var n=h(a(o),"build",this).call(this,t,Ht);if(!n)return null;n.el,n.options,function(t,n,e){t.play()}(n.player)}}]),o}(st);return Jt.init(),Jt}));
(function(s,i,o,w,a,b){w[o]=w[o]||{};w[o][s]=w[o][s]||[];w[o][s].push(i);})('5c7f360c',{"root":"eumxbwGnBKO1","version":"2022-05-04","animations":[{"elements":{"eumxbwGnBKO5":{"transform":{"data":{"t":{"x":-147.000044,"y":-484.5}},"keys":{"o":[{"t":620,"v":{"x":146.5,"y":484.5,"type":"corner"},"e":[0.42,0,0.58,1]},{"t":1600,"v":{"x":146.5,"y":-40,"type":"corner"}}]}}},"eumxbwGnBKO8":{"#size":[{"t":620,"v":{"width":247.862372,"height":1.747674}},{"t":1600,"v":{"width":247.862372,"height":922.772021}}]},"eumxbwGnBKO9":{"transform":{"data":{"t":{"x":-147,"y":-260}},"keys":{"o":[{"t":600,"v":{"x":147,"y":670,"type":"corner"},"e":[0.42,0,0.58,1]},{"t":1600,"v":{"x":147,"y":267,"type":"corner"}},{"t":4800,"v":{"x":147,"y":267,"type":"corner"}},{"t":5600,"v":{"x":-150,"y":267,"type":"corner"}}]}}},"eumxbwGnBKO48":{"transform":{"data":{"t":{"x":-146.5,"y":-252.309173}},"keys":{"o":[{"t":600,"v":{"x":146.5,"y":252.309174,"type":"corner"},"e":[0.42,0,0.58,1]},{"t":1600,"v":{"x":146.5,"y":-170,"type":"corner"}}]}}},"eumxbwGnBKO65":{"transform":{"data":{"t":{"x":-147,"y":-261.5}},"keys":{"o":[{"t":5000,"v":{"x":450,"y":260,"type":"corner"}},{"t":5600,"v":{"x":150,"y":260,"type":"corner"}}]}}},"eumxbwGnBKO87":{"#radius":[{"t":2200,"v":{"x":0,"y":0},"e":[0.42,0,0.58,1]},{"t":3000,"v":{"x":40,"y":40}}],"opacity":[{"t":2200,"v":1,"e":[0.42,0,0.58,1]},{"t":3000,"v":0}]},"eumxbwGnBKO88":{"#size":[{"t":3400,"v":{"width":157.793809,"height":0}},{"t":4000,"v":{"width":157.793809,"height":21.125466}}],"opacity":[{"t":4000,"v":1},{"t":4600,"v":0}]}},"s":"MRDA1M2Q2N2RiZmQwY2RRiY2NmQmM0Y2FjOTdEkOTU5MDkxSjhiOGI4CN1k3ZGJmYzRjZGMwYAmVjZlVjNGNhYzk3ZDOk1OGM4NzdkYzRjZmMIwY2RiY2NmYzRjYUljYOWNlN2ROOTU4Yzg3NB2REYzFjNEVjN2M3N2JQ5NThjODc3ZGJjYzdSjZmMwY2RjOU1iY2NmRYzA3ZDk1YzFiY2M3SKGNlUGMwSTg3N2RjZWANiYzBjMGJmN2Q5NThCjZDg/"}],"options":"MKDAxMDg4MmY4MDgxNmXU3ZjgxMmY0NzJmNzkS3Y0Y2ZVE3MTJmOGE/P"},'__SVGATOR_PLAYER__',window)]]></script></svg>